<?xml version="1.0" standalone="no"?>
<!DOCTYPE svg PUBLIC "-//W3C//DTD SVG 1.1//EN" "http://www.w3.org/Graphics/SVG/1.1/DTD/svg11.dtd" >
<svg xmlns="http://www.w3.org/2000/svg">
<metadata></metadata>
<defs>
<font id="db_metta_x_lightlight" horiz-adv-x="0" >
<font-face units-per-em="2048" ascent="1638" descent="-410" />
<missing-glyph horiz-adv-x="512" />
<glyph unicode="&#x2e;&#x2e;&#x2e;" horiz-adv-x="846" d="M74 58q0 14 5 26t14.5 21t22 14t25.5 5q14 0 26.5 -5t21.5 -14t14 -21t5 -26t-5 -26.5t-14 -22t-21.5 -14.5t-26.5 -5t-26 5t-21.5 14.5t-14.5 22t-5 26.5zM356 58q0 14 5 26t14 21t21 14t26 5t26.5 -5t22 -14t14.5 -21t5 -26t-5 -26.5t-14.5 -22t-22 -14.5t-26.5 -5 t-26 5t-21 14.5t-14 22t-5 26.5zM638 58q0 14 5 26t14.5 21t22 14t25.5 5q14 0 26.5 -5t21.5 -14t14 -21t5 -26t-5 -26.5t-14 -22t-21.5 -14.5t-26.5 -5t-26 5t-21.5 14.5t-14.5 22t-5 26.5z" />
<glyph unicode="&#xe4f;&#x22;" horiz-adv-x="819" d="M66 344q0 48 12 92t35 82t54 69.5t69.5 54t82 34.5t91.5 12t91.5 -12t82 -34.5t69.5 -54t53.5 -69.5t35 -82t12.5 -92q0 -47 -12.5 -90.5t-35 -82t-53.5 -70t-69.5 -54t-82.5 -35.5q-43 -12 -91 -12q-47 0 -91 12.5t-82.5 35t-69.5 54t-54 70t-35 82t-12 90.5zM128 344 q0 -58 22.5 -109t61 -89t89.5 -60.5t109 -22.5t109 22.5t89 60.5t60.5 89t22.5 109t-22.5 109t-60.5 89.5t-89 61t-109 22.5t-109 -22.5t-89.5 -61t-61 -89.5t-22.5 -109zM221 344q0 39 14.5 73.5t39.5 60.5t60 41t75 15q39 0 73.5 -15t60.5 -41t41 -60.5t15 -73.5 q0 -40 -15 -74.5t-41 -60t-61 -39.5t-73 -14q-40 0 -75 14t-60 39.5t-39.5 60t-14.5 74.5zM278 344q0 -28 10 -52t28 -42t42 -28t52 -10t51.5 10t41.5 28t28.5 42t10.5 52t-10.5 52t-28.5 42t-42 28q-23 10 -51 10t-52 -10t-42 -28t-28 -42t-10 -52zM296 746v220h63v-220 h-63zM460 746v220h61v-220h-61z" />
<glyph horiz-adv-x="2048" />
<glyph horiz-adv-x="2048" />
<glyph unicode="&#xd;" horiz-adv-x="579" />
<glyph unicode=" "  horiz-adv-x="512" />
<glyph unicode="&#x09;" horiz-adv-x="512" />
<glyph unicode="&#xa0;" horiz-adv-x="512" />
<glyph unicode="!" horiz-adv-x="544" d="M206 60q0 14 5 26t14.5 21t22 14.5t25.5 5.5q14 0 26.5 -5.5t21.5 -14.5t14 -21t5 -26t-5 -26t-14 -21.5t-21.5 -15t-26.5 -5.5t-26 5.5t-21.5 15t-14.5 21.5t-5 26zM225 977l93 13l-21 -774h-49z" />
<glyph unicode="&#x22;" horiz-adv-x="725" d="M230 659v352h70v-337zM425 659v352h71v-337z" />
<glyph unicode="#" horiz-adv-x="878" d="M63 309l9 63h145l38 267h-145l9 63h145l44 307h64l-44 -307h270l44 307h62l-44 -307h148l-8 -63h-148l-39 -267h149l-8 -63h-150l-44 -309h-62l44 309h-270l-44 -309h-64l44 309h-145zM282 372h268l38 267h-268z" />
<glyph unicode="$" horiz-adv-x="814" d="M84 68l28 66q56 -40 122 -61t134 -23v432l-38 14q-24 8 -51 19.5t-53 27t-50 34t-42 42t-28 51.5t-10 60q0 54 20 100t56.5 80t86.5 55q49 21 109 27v120l72 16v-136q64 -5 130 -28.5t122 -61.5l-28 -58q-53 38 -110.5 59t-113.5 25v-386q17 -6 33.5 -12t32.5 -11 q48 -16 89 -39t71.5 -54t48 -71.5t17.5 -90.5q0 -55 -23.5 -101.5t-63 -82.5t-92.5 -59t-113 -31v-142h-72v138q-77 2 -150.5 24t-133.5 58zM182 754q0 -30 8 -55t29.5 -48t57.5 -43q35 -20 91 -40v358q-41 -6 -75.5 -20t-59 -37t-38 -52t-13.5 -63zM440 56q38 6 75 20.5 t66.5 38.5t47.5 57.5t18 77.5q0 31 -10.5 59.5t-35 54.5t-64 49t-97.5 44v-401z" />
<glyph unicode="%" horiz-adv-x="1223" d="M60 737q0 54 16.5 98.5t47 77t73.5 50.5t97 18q64 0 109.5 -20.5t75 -54.5t43.5 -80q13 -48 13 -100t-17 -94.5t-48 -74t-75.5 -48.5t-98.5 -17t-98 18t-74.5 51t-47 77.5t-16.5 98.5zM130 749q0 -44 9 -80t29 -61.5t52 -39.5q34 -14 80 -14q38 0 68 12t52 33t34 52 t12 69q0 22 -3 45t-10.5 45.5t-20 42.5t-31.5 35t-45.5 24t-61.5 9q-38 0 -68 -13.5t-51 -36.5t-33 -54t-12 -68zM336 4l491 998l61 -27l-490 -998zM688 230q0 54 16.5 98.5t47 77t73.5 50.5t97 18q64 0 109.5 -20.5t75 -55t43 -80.5t13.5 -99q0 -52 -17 -94.5t-48 -74 t-75.5 -49t-98.5 -17.5t-98 18.5t-74.5 51t-47 77.5t-16.5 99zM758 242q0 -44 9 -80t29 -62t52 -40q34 -14 80 -14q38 0 68 12t52 33.5t34 52t12 68.5q0 22 -3 45t-10.5 46t-20 43t-31.5 35t-45.5 24t-61.5 9q-38 0 -68 -13.5t-51 -37t-33 -54.5t-12 -67z" />
<glyph unicode="&#x26;" horiz-adv-x="977" d="M96 239q0 44 17 83t47 72.5t72 63t92 54.5q-36 35 -66 68.5t-52 65.5t-34.5 63t-12.5 60q0 58 21.5 98.5t57.5 66.5t82.5 38t97.5 12q58 0 104 -15t78.5 -44t49.5 -71q18 -40 18 -92q0 -41 -19.5 -76.5t-52 -67t-73.5 -59.5q-41 -27 -86 -53l285 -273q12 26 19 54.5 t11 56.5t5 52.5t1 41.5l72 22q-1 -54 -5.5 -95t-12 -74t-18 -58.5t-22.5 -47.5q34 -32 71 -65.5t71 -65.5l-55 -56l-128 122q-24 -32 -57.5 -57t-72.5 -42t-82 -26t-87 -9q-76 0 -138 17.5t-106 50t-68 79.5t-24 106zM177 238q0 -38 19.5 -72t53.5 -59.5t82 -40t104 -14.5 q40 0 77.5 9t69.5 25t58 36q25 20 43 43l-317 305q-39 -22 -74 -47t-60.5 -54t-40.5 -61t-15 -70zM236 785q0 -28 9 -53.5t28.5 -52.5t49.5 -59q29 -32 71 -74q32 18 67.5 41t66 49.5t50.5 58t20 67.5q0 35 -11.5 65t-34 51.5t-56.5 34.5t-78 13q-35 0 -68 -9t-58.5 -27 t-40.5 -44t-15 -61z" />
<glyph unicode="'" horiz-adv-x="420" d="M175 659v352h71v-337z" />
<glyph unicode="(" horiz-adv-x="513" d="M85 462q0 62 8.5 125.5t27 125t46 119.5t65.5 108.5t86.5 92t107.5 69.5l20 -42q-78 -50 -131.5 -114t-86.5 -139t-47.5 -161t-14.5 -180q0 -55 6 -113.5t19 -117.5t34 -117t52 -110t73 -97t96 -79l-20 -46q-60 28 -109 71t-87 97t-65 116t-45 128t-26 134q-9 66 -9 130z " />
<glyph unicode=")" horiz-adv-x="513" d="M67 -168q54 34 96 79t73 97t52.5 110t34.5 117t18.5 117.5t5.5 113.5q0 94 -14.5 180t-47.5 161t-86 139t-132 114l21 42q59 -28 107.5 -69.5t86 -92t65 -108.5t46 -119.5t27 -125t8.5 -125.5q0 -64 -8 -131t-26 -133t-45.5 -128t-65 -116t-86.5 -98q-49 -42 -109 -70z " />
<glyph unicode="*" horiz-adv-x="661" d="M58 798l22 56l221 -76v236h59v-236l220 75l22 -53l-224 -78l145 -199l-51 -34l-142 197l-144 -197l-48 36l145 199z" />
<glyph unicode="+" horiz-adv-x="743" d="M76 324v69h260v262h70v-262h261v-69h-261v-260h-70v260h-260z" />
<glyph unicode="," horiz-adv-x="401" d="M120 -133q20 12 36 26.5t28 30.5t18 34q8 20 8 38q-5 -2 -7.5 -2h-8.5q-13 0 -24.5 4t-20.5 11t-14 18t-5 26q0 16 5.5 28.5t15 21.5t22.5 13.5t27 4.5q32 -2 53 -26.5t21 -68.5q0 -30 -10 -58t-28 -53t-42 -47t-52 -38z" />
<glyph unicode="-" horiz-adv-x="695" d="M142 324v70h412v-70h-412z" />
<glyph unicode="." horiz-adv-x="387" d="M126 60q0 14 5.5 26t15 21t21.5 14.5t26 5.5t26 -5.5t21 -14.5t14.5 -21t5.5 -26t-5.5 -26t-14.5 -21.5t-21 -15t-26 -5.5t-26 5.5t-21.5 15t-15 21.5t-5.5 26z" />
<glyph unicode="/" horiz-adv-x="659" d="M98 -214l388 1245h75l-385 -1245h-78z" />
<glyph unicode="0" horiz-adv-x="811" d="M62 492q0 114 25.5 206t71 157t108.5 100t138 35q59 0 108 -20t87 -56.5t66 -86t47 -106.5t28 -121t9 -128q0 -58 -9.5 -117t-28 -113.5t-46.5 -102.5t-66 -83.5t-86 -56.5t-106 -21q-57 0 -104.5 21t-86 56.5t-67.5 84.5t-48.5 106t-29.5 119.5t-10 126.5zM148 516 q0 -45 5 -97.5t16 -104.5t31 -100.5t49 -86t70 -59.5t95 -22q46 0 82.5 17t64.5 47.5t47.5 71t32.5 86t19 94t6 94.5q0 44 -4.5 96t-16 104t-30.5 100t-48 85.5t-69 60t-93 22.5q-47 0 -84 -18t-65.5 -47.5t-49 -70t-33.5 -85.5t-19 -93t-6 -94z" />
<glyph unicode="1" horiz-adv-x="811" d="M168 816q22 10 44 22.5t43 25.5t41 26t38 25q40 27 78 57h64v-901h206l-20 -71h-463v71h199v807q-59 -38 -111.5 -63t-96.5 -45z" />
<glyph unicode="2" horiz-adv-x="811" d="M100 0v79q20 18 36 30.5t31 26.5q42 36 90 79t96.5 87t93.5 90t81 90q32 39 53 74.5t33 67.5t17 60.5t5 52.5q0 40 -14.5 73.5t-42 58.5t-67.5 39t-90 14q-36 0 -72 -10t-71 -26.5t-67 -38.5t-62 -46l-32 51q36 31 76 56.5t82 43.5t86 28t88 10q30 0 62 -7t62 -21 t57 -34.5t47 -48t31.5 -62t11.5 -75.5q0 -29 -5 -63t-19.5 -72.5t-40.5 -80.5t-69 -89q-22 -23 -50.5 -51t-61.5 -59.5t-71 -66.5q-36 -34 -76 -70q-16 -14 -35 -30l-38 -32t-38.5 -31t-37.5 -29q18 1 40.5 1.5t45.5 0.5h45h39h377l-20 -70h-606z" />
<glyph unicode="3" horiz-adv-x="811" d="M90 62q20 -4 47 -7t53 -6t48 -4.5t34 -1.5q74 0 138 16t111.5 45.5t74.5 71.5q27 44 27 96q0 60 -24.5 103t-68.5 70.5t-106 40.5q-60 14 -134 14h-31l21 64q25 0 48 2l40 2q20 0 34 2q46 8 82 26.5t60.5 44t37.5 55.5t13 62q0 45 -16.5 76.5t-45.5 50.5t-67 28t-80 9 q-18 0 -45 -3.5t-62 -13t-74.5 -25.5t-81.5 -40l-27 50q32 22 70.5 41t79 32t79.5 20t74 7q63 0 114.5 -16t88 -45t57 -69t20.5 -88q0 -40 -13.5 -77t-39.5 -67t-64 -54q-38 -22 -88 -38q70 -19 115.5 -49t71.5 -65.5t35.5 -73.5t8.5 -74q-1 -48 -18 -89t-46.5 -74 t-68.5 -58t-83.5 -41t-91.5 -25t-93 -9q-98 0 -190 18z" />
<glyph unicode="4" horiz-adv-x="811" d="M79 226v72l365 674h82l-365 -678h400l1 447l78 26v-473h120l-20 -68h-100v-219l-80 -23v242h-481z" />
<glyph unicode="5" horiz-adv-x="811" d="M122 57q27 -6 54 -9.5t51 -3.5q76 0 145.5 20t122.5 58t85 90.5t32 117.5q0 60 -21.5 102t-58 67.5t-84.5 36.5t-102 10q-20 0 -47 -3t-55.5 -7.5t-56 -10t-46.5 -9.5l60 456h455l-12 -70h-374l-44 -314q16 4 37 8t42.5 6l43 4t39.5 2q38 0 75.5 -6t71.5 -19t63.5 -34 t50.5 -52t33 -72t12 -95t-18 -101t-49 -86t-73 -70t-92 -52t-104.5 -32t-109.5 -11q-28 0 -55 3t-53 9z" />
<glyph unicode="6" horiz-adv-x="811" d="M87 368q0 59 12 118t34.5 115t55.5 108t75 97.5t92 83.5q50 36 108 64q28 14 55 23t49 16l17 -52l-25.5 -8.5t-26.5 -10.5l-26 -12t-23 -12q-54 -30 -100.5 -68t-85 -85t-68.5 -102t-48 -117q36 28 70 45t67 28t63 15t54 4q62 0 114.5 -24t91 -65t60.5 -99t22 -125 q0 -46 -12 -87.5t-33 -78t-50.5 -66t-64.5 -50.5t-75 -33t-82 -12q-76 0 -135.5 31t-100.5 84t-62.5 124t-21.5 151zM169 374q0 -36 6 -75t18.5 -75t32 -69t46 -57.5t60.5 -39t75 -14.5q49 0 92 20.5t75 55t50 81.5t18 100q0 49 -14 94.5t-42 80.5t-71 56t-101 21 q-26 0 -57 -6.5t-63 -19.5t-64 -31t-58 -42q-1 -8 -2 -30q-1 -24 -1 -50z" />
<glyph unicode="7" horiz-adv-x="811" d="M84 902l20 70h663l-23 -98q-52 -56 -108 -118t-109 -130t-101 -141t-85 -149.5t-59 -156t-22 -161.5l-94 -20q1 87 25.5 173t66 168.5t95 161.5t110.5 151t115 136q56 64 106 118q-12 -1 -30 -1.5t-37.5 -1.5t-39 -1h-35.5h-458z" />
<glyph unicode="8" horiz-adv-x="811" d="M75 248q0 31 10.5 59.5t29.5 53.5t43 47.5t52 41.5t56 34.5t56 27.5q-41 20 -76.5 47.5t-62 59t-41.5 65.5t-15 68q0 48 21.5 91.5t60 76t93 51.5t120.5 19q56 0 105 -17t85.5 -46t57 -69t20.5 -86q0 -44 -22 -81t-56 -68.5t-75 -56.5q-41 -26 -80 -44q31 -14 61 -28 q12 -6 26 -12.5t27.5 -13t25.5 -13.5t22 -13q58 -36 87 -88q30 -50 30 -106q0 -46 -13 -84t-36 -67.5t-54 -52t-68 -37t-78 -22t-82 -7.5q-75 0 -136 22t-104 59t-66.5 86t-23.5 103zM153 256q0 -48 20 -87t55 -67t83 -44q47 -15 103 -15q46 0 89.5 13.5t76.5 39.5 t52.5 61.5t19.5 79.5q0 48 -20 82q-19 33 -50 57q-22 16 -43.5 29t-45 25t-51.5 24q-26 13 -60 29q-22 -10 -47 -22.5t-50.5 -28t-49 -34t-42 -40.5t-29.5 -47.5t-11 -54.5zM211 760q0 -14 2.5 -29.5t9 -32t19 -34.5t34 -37t52.5 -38t74 -39q46 22 84 46t66 51t44 56t16 59 q0 40 -16 71t-43 51.5t-65 31.5q-38 10 -80 10q-40 0 -76 -12.5t-63 -35t-42.5 -52.5t-15.5 -66z" />
<glyph unicode="9" horiz-adv-x="811" d="M86 664q0 46 11.5 88t32.5 78t50.5 66t64.5 51t75 32.5t82 11.5q76 0 135 -31t100 -84t63 -124t22 -151q0 -59 -12 -118t-35 -115t-56 -108t-74.5 -97t-91.5 -83q-49 -38 -107 -65q-28 -14 -55 -22.5t-50 -16.5l-17 52q12 4 25.5 9t27 10.5t25.5 11.5t23 12 q54 30 100.5 68.5t85.5 85.5t68 101.5t49 117.5q-36 -28 -71 -45.5t-67.5 -28t-62 -14.5t-55.5 -4q-62 0 -114 23.5t-90.5 65t-59.5 99.5q-22 56 -22 124zM168 668q0 -50 14 -95t42 -80t70 -56t100 -21q26 0 57.5 7t64 20t63.5 31t58 42q1 8 2 30t1 49q0 38 -6 77t-19 75.5 t-32 69t-45 56.5t-60 38t-76 14q-49 0 -91.5 -20.5t-74 -56t-50 -82t-18.5 -98.5z" />
<glyph unicode=":" horiz-adv-x="444" d="M155 58q0 14 5.5 26t14.5 21t21 14t26 5t26 -5t21.5 -14t14.5 -21q6 -12 6 -26t-5.5 -26.5t-15 -22t-21.5 -14.5t-26 -5t-26 5t-21 14.5t-14.5 22t-5.5 26.5zM155 638q0 14 5.5 26t14.5 21t21 14.5t26 5.5t26 -5.5t21.5 -14.5t15 -21t5.5 -26t-5.5 -26t-15 -21.5 t-21.5 -15t-26 -5.5t-26 5.5t-21 15t-14.5 21.5t-5.5 26z" />
<glyph unicode=";" horiz-adv-x="444" d="M136 -133q20 12 36 26.5t28 30.5t19 34q7 20 7 38q-5 -2 -7.5 -2h-7.5q-13 0 -25 4t-20.5 11t-14 18t-5.5 26q0 16 6 28.5t16 21.5t23 13.5t27 4.5q32 -2 52 -26.5t20 -68.5q0 -30 -10 -58t-27.5 -53t-41.5 -47q-23 -22 -51 -38zM155 638q0 14 5.5 26t14.5 21t21 14.5 t26 5.5t26 -5.5t21.5 -14.5t15 -21t5.5 -26t-5.5 -26t-15 -21.5t-21.5 -15t-26 -5.5t-26 5.5t-21 15t-14.5 21.5t-5.5 26z" />
<glyph unicode="&#x3c;" horiz-adv-x="674" d="M78 306v72l520 245v-75l-352 -166q-10 -5 -28 -12q-18 -6 -34 -12q-20 -8 -40 -15q30 -6 55.5 -13.5t46.5 -15.5l352 -134v-75z" />
<glyph unicode="=" horiz-adv-x="969" d="M120 213v69h730v-69h-730zM120 432v70h730v-70h-730z" />
<glyph unicode="&#x3e;" horiz-adv-x="674" d="M78 105v75l351 134q21 8 47 16t55 13q-21 8 -41 15q-16 6 -33 13t-27 11l-352 166v75l520 -245v-72z" />
<glyph unicode="?" horiz-adv-x="715" d="M120 872q28 28 59 49.5t65 37t68.5 23.5t68.5 8q44 0 84.5 -15t71.5 -43t50 -68t19 -92q0 -36 -11.5 -68t-30 -61.5t-41.5 -55t-47 -47.5q-28 -26 -48 -48t-32 -45t-17 -47t-5 -52v-28t0.5 -29.5t1.5 -28.5v-26l-72 -15q-1 15 -1.5 32t-1.5 34t-1 33v30q0 34 8 63 t23.5 56t39 55t54.5 59q21 21 40.5 43t34 45t23.5 48t9 55q0 28 -11 55t-32 48.5t-53 35t-73 13.5q-22 0 -47.5 -6.5t-51.5 -20t-53 -33.5q-27 -18 -53 -44zM284 60q0 14 5 26t14 21t21 15q12 5 26 5t26.5 -5.5t22 -14.5t14.5 -21t5 -26t-5 -26t-14.5 -21.5t-22 -15 t-26.5 -5.5t-26 5.5t-21 15t-14 21.5t-5 26z" />
<glyph unicode="@" horiz-adv-x="1166" d="M76 513q0 76 20 145.5t55 129t84 107.5t108.5 81.5t127 52t138.5 18.5q64 0 124 -13.5t113.5 -39.5t98 -63.5t77 -85t50.5 -103.5t18 -118q0 -69 -15 -126.5t-40 -104t-58 -81t-68 -58t-71 -35t-68 -11.5q-14 0 -28 5t-24.5 16t-17.5 30q-8 19 -8 47q-21 -25 -45.5 -43.5 t-51.5 -30.5t-55.5 -18t-56.5 -6q-42 0 -79.5 15t-66.5 45.5t-45 75t-16 104.5q0 48 13 95t36 89t55 78t70 61.5t79 40t84 14.5q22 0 50.5 -6t54.5 -22t47 -44q21 -30 29 -74h2l36 136l59 -14l-117 -408q-5 -16 -9.5 -34t-4.5 -32q0 -10 1.5 -19t6 -15.5t13.5 -10.5t23 -4 q22 0 47 12.5t49 35.5t46.5 54t39 67t26.5 77t10 82q0 59 -16 110t-45 93t-68.5 75t-85.5 55t-96.5 33.5t-101.5 11.5q-64 0 -123 -16.5t-110.5 -46.5t-94.5 -73t-73.5 -95.5t-47 -113t-16.5 -127.5q0 -65 17.5 -125t49 -112t74.5 -95t94.5 -73.5t109 -47t117.5 -16.5 q52 0 103 12t98 34t87.5 53t71.5 68h82q-36 -54 -85.5 -97t-107.5 -73t-121.5 -46t-127.5 -16q-72 0 -140 19.5t-127 54.5t-107 84.5t-83 109t-54 127t-19 139.5zM352 452q0 -54 14 -88t36 -53.5t47.5 -27t47.5 -7.5q33 0 69 16t68 42.5t57 61.5t39 74q4 14 8 32t7 37t5 38 t2 35q-2 26 -11.5 51t-26.5 45t-42.5 32t-58.5 12q-36 0 -68.5 -13t-61.5 -34.5t-53.5 -51t-42 -62.5t-26.5 -69t-9 -70z" />
<glyph unicode="A" horiz-adv-x="904" d="M46 0l356 978h100l357 -978h-84l-118 330h-411l-118 -330h-82zM270 394h364l-182 509z" />
<glyph unicode="B" horiz-adv-x="911" d="M140 0v978h310q38 0 76 -3.5t73.5 -13t66.5 -26t53.5 -42t36 -61.5t13.5 -85q0 -32 -6.5 -66.5t-23.5 -65.5t-45 -57q-30 -24 -74 -40q56 -11 95 -34t62 -55.5t33 -73.5t10 -89q0 -71 -25 -121.5t-67 -82.5t-98 -47t-118 -15h-372zM217 71h303q59 0 101.5 14.5t69.5 41.5 t40 65t13 84q0 54 -21 92t-57 61t-84 34t-102 11h-263v-403zM217 544h261q44 0 82.5 12t68 36t46.5 59t17 80q0 56 -19 90.5t-50 53.5t-69 26t-78 7h-259v-364z" />
<glyph unicode="C" horiz-adv-x="866" d="M84 484q0 70 16 135t45 121t70 102t90.5 78t106 50t118.5 18q32 0 64 -4.5t63.5 -14t62 -23.5t58.5 -33l-32 -58q-28 18 -57 30.5t-56 19.5t-52.5 10.5t-48.5 3.5q-62 0 -112 -18.5t-90 -50.5t-70 -75.5t-49.5 -93t-29 -102.5t-9.5 -105q0 -48 11 -97t32 -95t53 -86 t73.5 -69.5t93 -47t113.5 -17.5q24 0 54 4t62 13t64 24q34 15 62 37l30 -56q-34 -27 -71 -44.5t-74.5 -28.5t-74 -15t-70.5 -4q-66 0 -125 19t-108.5 53.5t-89 81t-66.5 101.5t-42 115t-15 122z" />
<glyph unicode="D" horiz-adv-x="952" d="M144 0v978h267q109 0 190 -34.5t135 -98.5t81 -155.5t27 -205.5q0 -65 -10 -126t-31.5 -114.5t-54 -98.5t-77.5 -77t-103 -50t-130 -18h-294zM220 70h188q96 0 162 28t108 80t61.5 126t19.5 166q0 56 -7.5 111t-23.5 103.5t-43 89.5t-66 70.5t-91 46.5t-120 17h-188v-838 z" />
<glyph unicode="E" horiz-adv-x="779" d="M144 0v978h562l-20 -70h-466v-362h374v-71h-374v-405h506v-70h-582z" />
<glyph unicode="F" horiz-adv-x="732" d="M144 0v978h562l-20 -70h-466v-362h374v-71h-374v-475h-76z" />
<glyph unicode="G" horiz-adv-x="938" d="M91 484q0 68 12 132t36.5 120t60 103t83 80.5t106.5 52t129 18.5q38 0 76 -5.5t75 -16.5t70 -26.5t61 -35.5l-30 -60q-28 20 -59 35t-63 24t-64 13.5t-62 4.5q-62 0 -112 -18t-88.5 -49.5t-66 -73.5t-45.5 -91.5t-26 -103t-8 -107.5t8.5 -107t26 -100.5t45.5 -88 t67 -70.5t89.5 -47t113.5 -17q22 0 51 3t57.5 9.5t55.5 15.5q26 8 45 20v341h-235l20 69h292v-458q-27 -16 -63.5 -28t-76.5 -21t-80 -13t-76 -4q-66 0 -123 17.5t-104 50t-84 78.5t-62 101t-39 119q-13 64 -13 134z" />
<glyph unicode="H" horiz-adv-x="966" d="M140 0v978h78v-432h532v432h76v-978h-76v481h-532v-481h-78z" />
<glyph unicode="I" horiz-adv-x="400" d="M162 0v978h76v-978h-76z" />
<glyph unicode="J" horiz-adv-x="427" d="M-5 -149q52 16 88.5 36.5t59.5 52t34 77t12 111.5v850h77v-848q0 -67 -13 -120t-41 -93.5t-73 -69.5t-111 -49z" />
<glyph unicode="K" horiz-adv-x="841" d="M130 0v978h77v-978h-77zM206 532l474 446h111l-483 -446l514 -510l-78 -36z" />
<glyph unicode="L" horiz-adv-x="725" d="M144 0v978h76v-908h484l-26 -70h-534z" />
<glyph unicode="M" horiz-adv-x="1181" d="M102 0l102 978h121l193 -598q4 -12 9 -29.5t11 -37.5t12 -41q4 -22 10 -42q13 -48 27 -100h7q14 52 26 100q6 20 12 41.5t11 41.5t10 37.5t9 29.5l194 598h122l100 -978h-76l-88 849q-1 10 -2 23q-2 14 -2 26h-4q-2 -12 -6 -25t-8 -23l-270 -850h-64l-270 850 q-3 10 -6.5 23t-5.5 25h-6q0 -12 -1 -25.5t-1 -23.5l-89 -849h-77z" />
<glyph unicode="N" horiz-adv-x="960" d="M142 0v978h98l416 -703q14 -24 24.5 -43.5t20 -38.5t18.5 -38t21 -41h8q-2 49 -4 98.5t-2 96.5v669h77v-978h-85l-428 724q-10 18 -22 39t-23.5 42t-22 42t-20.5 39h-4q2 -60 3 -114.5t1 -99.5v-672h-76z" />
<glyph unicode="O" horiz-adv-x="990" d="M90 493q0 113 29.5 205.5t82.5 158t126.5 101.5t163.5 36q72 0 130 -21t103.5 -57.5t78.5 -86t54.5 -107.5t32 -121.5t10.5 -127.5q0 -58 -9.5 -116.5t-30 -112.5t-52 -102t-76.5 -83t-103 -55.5t-131 -20.5q-70 0 -127.5 20.5t-103 55.5t-79 84t-55.5 105.5t-33 119 t-11 125.5zM181 516q0 -56 8.5 -113t26 -109.5t44 -98t62.5 -79t82 -53t102 -19.5q53 0 96 17t77 46t59 68.5t41.5 85.5t24 96.5t7.5 100.5q0 46 -6 98.5t-20.5 105t-37.5 100.5t-59 85t-84 59t-112 22q-55 0 -99.5 -17t-79.5 -47t-59.5 -70t-41 -86t-24 -95t-7.5 -97z" />
<glyph unicode="P" horiz-adv-x="830" d="M141 0v978h310q64 0 123 -16t103.5 -50t71 -87t26.5 -127q0 -70 -20.5 -127t-59.5 -98t-96 -63t-131 -22h-250v-388h-77zM218 457h237q48 0 91.5 15.5t77.5 43.5t54 69t20 92q0 62 -20.5 105.5t-58 71t-89.5 40.5t-116 13h-196v-450z" />
<glyph unicode="Q" horiz-adv-x="990" d="M90 493q0 113 29.5 205.5t82.5 158t126.5 101.5t163.5 36q72 0 130 -21t103.5 -57.5t78.5 -86t54.5 -107.5t32 -121.5t10.5 -127.5q0 -47 -6.5 -95t-19.5 -93.5t-34 -88t-50 -78.5t-66 -64t-83 -46q16 -3 31 -7.5t29 -12.5q17 -8 34.5 -19t29.5 -21q41 -30 84 -44 q39 -13 84 -13h6l-25 -73h-9q-28 0 -53 7t-48 19t-46 27t-45 33q-22 16 -43 31t-42 24q-26 10 -51.5 16t-54.5 9q-6 0 -12 -0.5t-12 -0.5q-70 0 -127.5 20.5t-103 55.5t-79 84t-55.5 105.5t-33 119t-11 125.5zM181 516q0 -56 8.5 -113t26 -109.5t44 -98t62.5 -79t82 -53 t102 -19.5q53 0 96 17t77 46t59 68.5t41.5 85.5t24 96.5t7.5 100.5q0 46 -6 98.5t-20.5 105t-37.5 100.5t-59 85t-84 59t-112 22q-55 0 -99.5 -17t-79.5 -47t-59.5 -70t-41 -86t-24 -95t-7.5 -97z" />
<glyph unicode="R" horiz-adv-x="824" d="M141 0v978h301q64 0 119 -16t94.5 -49t62 -83t22.5 -118q0 -55 -18 -103t-54 -84.5t-89 -58.5t-122 -25q22 -13 38.5 -28t30.5 -31t26 -34l24 -36q10 -15 26 -38.5t39 -58.5t54 -82t72 -110l-81 -29q-12 20 -30 51t-40 66t-46 72t-48 73t-46 66q-24 31 -42 53 q-14 16 -31 26.5t-37 16t-42 6.5q-22 2 -48 2h-58v-426h-77zM218 496h204q50 0 94 12t77 38t51.5 66t18.5 97q0 48 -15.5 85t-44.5 61.5t-70.5 37.5t-92.5 14h-222v-411z" />
<glyph unicode="S" horiz-adv-x="809" d="M84 68l28 66q59 -42 127.5 -63t138.5 -21q29 0 60.5 5t61.5 15.5t56.5 26.5t47 38.5t32 50.5t11.5 64q0 31 -10.5 59.5t-35.5 54.5t-65 49.5t-98 44.5q-32 12 -57 20t-51 18q-24 8 -51 19.5t-53 27t-50 34t-42 42t-28 51.5t-10 60q0 58 24 107t66 84t99.5 54t124.5 19 q35 0 71.5 -6t73.5 -18t72 -29t65 -39l-28 -58q-59 42 -123.5 64t-124.5 22q-50 0 -93 -13t-74.5 -36t-49 -55.5t-17.5 -71.5q0 -30 8 -55t30 -48t58 -44t92 -40q33 -12 68.5 -24.5t67.5 -23.5q48 -16 89 -39t71.5 -54t48 -71.5t17.5 -90.5q0 -42 -13.5 -78.5t-37 -67 t-56.5 -55.5t-72.5 -42t-83.5 -26q-45 -9 -91 -9q-40 0 -79 6t-76 16.5t-73 25.5q-35 16 -66 34z" />
<glyph unicode="T" horiz-adv-x="749" d="M36 908v70h693l-19 -70h-294v-907h-76v907h-304z" />
<glyph unicode="U" horiz-adv-x="937" d="M137 262v716h77v-712q0 -43 13 -82t43 -68.5t79 -46.5t120 -17q68 0 116.5 17t79.5 46t45 70t14 89v704h77v-698q0 -73 -23.5 -127.5t-67.5 -92t-107 -56t-141 -18.5q-64 0 -123 16t-104 50t-71.5 86t-26.5 124z" />
<glyph unicode="V" horiz-adv-x="843" d="M27 966l76 20l219 -616q4 -10 9.5 -28t13 -41t15.5 -49t17 -52q19 -60 41 -130q22 68 42 126q8 25 17 51t17 49t14.5 41.5t10.5 30.5l215 610h80l-354 -978h-88z" />
<glyph unicode="W" horiz-adv-x="1226" d="M58 971l76 14l155 -599q6 -22 11.5 -47t11.5 -49.5l12 -49t10 -46.5l24 -104h8q12 72 27 144t35 151l145 593h77l146 -593q10 -39 18 -76t16 -73l16 -72t16 -74h7q11 56 23 108q5 22 10.5 47t10.5 49t11 48t12 44l153 592h80l-255 -978h-94l-151 596q-4 15 -8.5 34.5 t-8.5 41.5t-9 46t-9 46q-10 52 -20 108h-4q-10 -56 -20 -108q-4 -22 -9 -46t-9 -46t-9 -42t-8 -34l-151 -596h-94z" />
<glyph unicode="X" horiz-adv-x="801" d="M18 0l334 521l-304 449l85 22l261 -409l246 395h92l-296 -456l340 -522h-92l-294 457l-278 -457h-94z" />
<glyph unicode="Y" horiz-adv-x="805" d="M20 965l79 21l187 -344q39 -68 66.5 -118t41.5 -84l14 28t18 35t21.5 39t22 38t20.5 34t16 28l194 336h89l-359 -598v-380h-76v388z" />
<glyph unicode="Z" horiz-adv-x="732" d="M38 0v83l498 711q5 7 11.5 15.5t13.5 17.5t15 19t15 19q17 21 36 43h-545l30 70h578v-92l-487 -702q-4 -6 -9.5 -13.5t-12.5 -16.5t-15 -19q-8 -9 -15 -19q-18 -22 -37 -48h568l-23 -68h-621z" />
<glyph unicode="[" horiz-adv-x="385" d="M90 -220v1256h228v-60h-152v-1134h152v-62h-228z" />
<glyph unicode="\" horiz-adv-x="562" d="M14 1022l67 30l471 -1077l-70 -33z" />
<glyph unicode="]" horiz-adv-x="386" d="M68 -158h152v1134h-152v60h228v-1256h-228v62z" />
<glyph unicode="^" horiz-adv-x="962" d="M114 398l331 602h67l330 -602h-82l-280 526l-284 -526h-82z" />
<glyph unicode="_" horiz-adv-x="721" d="M10 -98h702v-67h-702v67z" />
<glyph unicode="`" horiz-adv-x="499" d="M78 962l40 74l312 -173l-48 -39z" />
<glyph unicode="a" horiz-adv-x="730" d="M82 174q0 56 32 102t87 78t129 49t159 17q8 0 18.5 -1t20.5 -2t18 -2q6 -1 10 -1v81q0 34 -6 64t-23 52.5t-48.5 35t-82.5 12.5q-28 0 -60 -5.5t-65 -15.5t-64 -23.5t-57 -29.5l-36 51q34 21 72.5 36.5t77 26.5t76.5 16t72 5q58 0 98 -16t65.5 -43t37 -65t11.5 -81v-330 q0 -30 2 -52t8 -38.5t15 -28.5t25 -22l-38 -55q-26 12 -45 35.5t-31 63.5q-31 -29 -62.5 -47.5t-63.5 -29.5t-62 -15t-56 -4q-60 0 -104 16t-73 41.5t-43 58t-14 66.5zM162 178q0 -32 14 -55t37 -39t54 -24t67 -8q28 0 61 8t64.5 23t57 37t39.5 52v181q-18 4 -38 5.5 t-35 1.5q-40 0 -78.5 -6t-74.5 -17t-66.5 -27t-53 -36t-35.5 -44t-13 -52z" />
<glyph unicode="b" horiz-adv-x="811" d="M119 0q10 32 12 62.5t2 64.5v886l67 13v-407q34 32 67 52.5t64.5 31t62 14t58.5 3.5q62 0 114.5 -26t90 -73.5t57.5 -113t20 -144.5q0 -82 -21 -150.5t-59 -117.5t-91 -76t-118 -27q-40 0 -77.5 8.5t-68.5 22.5t-56 31.5t-42 33.5q-2 -18 -3 -31t-2.5 -23t-3.5 -18 t-5 -16h-68zM200 158q16 -22 42 -41t57 -33.5t64 -22.5t63 -8q60 0 104 25.5t73 69t43 101t14 119.5q0 30 -6 63t-18 65t-30.5 61.5t-44 52t-58.5 35.5t-75 13q-29 0 -61.5 -8t-63.5 -22t-58 -33t-45 -41v-396z" />
<glyph unicode="c" horiz-adv-x="680" d="M80 356q0 82 24 150t65.5 115t98 73t120.5 26q74 0 132 -25t100 -67l-40 -40q-27 23 -52.5 37t-49.5 21.5t-46 9.5t-44 2q-38 0 -70 -12t-58 -34t-46 -50t-33 -60.5t-20 -66.5t-7 -66q0 -33 6 -69t19 -71t32 -67t46 -56t62 -38.5t77 -14.5q34 0 62 4.5t52 12.5t44 20 t38 26l36 -40q-20 -22 -48 -38t-59 -26t-64 -15t-63 -5q-68 0 -126 25t-99.5 72.5t-65 115t-23.5 151.5z" />
<glyph unicode="d" horiz-adv-x="784" d="M78 363q0 76 20 141t57 113t89 75.5t114 27.5q28 0 59 -3.5t62 -14t64 -29.5t67 -49v386l68 14v-897q0 -18 0.5 -32t2 -27t4.5 -26q3 -12 9 -28l-64 -26q-8 14 -13 41t-7 61q-18 -15 -44 -32.5t-58 -32.5t-68 -24t-74 -9q-65 0 -118.5 27t-91 76t-58 117t-20.5 151z M152 368q0 -63 14 -120t42.5 -100.5t72 -69t103.5 -25.5q28 0 60 8t63 21.5t58 32.5t45 41v394q-18 22 -44 42t-57 35t-63 23q-34 8 -64 8q-41 0 -73.5 -13t-58.5 -35.5t-44 -52t-30 -61.5t-18 -65t-6 -63z" />
<glyph unicode="e" horiz-adv-x="726" d="M68 360q0 45 10 89.5t28 84.5t45 74t61 59t74.5 39t86.5 14q73 0 126.5 -31t89 -83t52.5 -121t17 -146l-512 -1q0 -64 18 -116.5t52 -90t83.5 -58.5t113.5 -21q24 0 51.5 4.5t55 13t53 19.5t46.5 26l19 -45q-24 -19 -54 -33.5t-63 -24.5t-66.5 -15t-63.5 -5 q-70 0 -128.5 25.5t-102 73t-68 116t-24.5 153.5zM145 400h440q0 30 -5.5 60.5t-16.5 59.5t-28.5 54.5t-42 44.5t-56.5 30t-72 11q-37 0 -75 -18t-69 -52t-51.5 -82t-23.5 -108z" />
<glyph unicode="f" horiz-adv-x="442" d="M44 644v62h109v121q0 46 13 82.5t37.5 61.5t59 38t78.5 13q72 0 132 -32l-19 -50q-20 10 -48.5 17t-57.5 6q-30 0 -53 -8.5t-40 -25.5t-26 -42t-9 -60v-121h210l-24 -62h-186v-644h-67v644h-109z" />
<glyph unicode="g" horiz-adv-x="771" d="M80 -103l72 15q6 -23 19 -40.5t31.5 -30.5t41 -22.5t46 -15.5t47 -8.5t43.5 -2.5q48 0 91 9t75.5 26.5t51.5 42t19 55.5q0 34 -9 57t-24 38t-35 23t-42 11.5t-45 4.5t-44 1h-178q-30 0 -52 7t-36 19t-21 28.5t-7 35.5q0 20 12 38t33 35.5t52 34t70 31.5q-7 1 -17.5 3 t-19.5 5q-35 10 -64.5 30t-51.5 46t-34 56.5t-12 62.5q0 50 22.5 92t60 72t86.5 47t103 17q20 0 40 -2t39 -6t36 -8t30 -9q22 -7 49.5 -12t57.5 -5q38 0 65 9.5t48 23.5l31 -59q-22 -14 -44 -21t-45 -9q-22 -2 -46 0q-25 2 -49 7q30 -30 42 -61q12 -32 12 -70 q0 -44 -18 -81.5t-50 -65.5t-76 -45.5t-96 -23.5l-9 -1q-39 -16 -72 -31.5t-56 -31.5t-36 -32t-13 -31q0 -18 19 -27t59 -9h190h2q209 0 209 -179q0 -34 -11.5 -63t-31.5 -52.5t-48 -41t-60 -29.5t-68 -17.5t-72 -5.5q-73 0 -129.5 13.5t-95.5 36.5t-61 53t-26 63zM168 494 q0 -42 16 -72t42.5 -49.5t61.5 -28.5q36 -10 74 -10q37 0 72 10t62.5 29.5t44 50t16.5 72.5q0 44 -15.5 75t-41.5 51t-62 28.5t-78 8.5q-38 0 -72.5 -9.5t-61 -30t-42.5 -52t-16 -73.5z" />
<glyph unicode="h" horiz-adv-x="816" d="M132 0v1010l68 13v-439q28 25 61.5 49.5t70 43.5t76.5 31t82 12q40 0 77 -12t65 -35t45 -57.5t17 -78.5v-537h-68v502q0 32 -8 60t-25.5 49.5t-46 34t-70.5 12.5q-38 0 -80 -15t-79.5 -37.5t-68 -49t-48.5 -48.5v-508h-68z" />
<glyph unicode="i" horiz-adv-x="372" d="M131 920q0 12 4.5 22t12 18t17.5 12q9 4 21 4t22.5 -4t18 -12t12 -18t4.5 -22t-4.5 -22t-12 -17t-18 -11.5t-22.5 -4.5t-21.5 4.5t-17 11.5t-12 17t-4.5 22zM152 0v702l68 13v-715h-68z" />
<glyph unicode="j" horiz-adv-x="386" d="M30 -145q20 3 44 12t44 26t34 45q14 26 14 66v698l68 13v-720q0 -46 -18 -80.5t-45 -59t-59.5 -38t-62.5 -15.5zM144 920q0 12 4.5 22t12 18t17.5 12t22 4t22 -4t17.5 -12t12 -18t4.5 -22t-4.5 -22t-12 -17t-17.5 -11.5t-22 -4.5t-22 4.5t-17.5 11.5t-12 17t-4.5 22z" />
<glyph unicode="k" horiz-adv-x="735" d="M132 0v1010l68 14v-1024h-68zM216 406l352 300h108l-368 -299l418 -393l-82 -24z" />
<glyph unicode="l" horiz-adv-x="372" d="M150 84v927l68 13v-880q0 -51 7 -85.5t15 -52.5l-67 -20q-5 18 -11 35q-4 15 -8 32t-4 31z" />
<glyph unicode="m" horiz-adv-x="1163" d="M108 689l68 27q6 -16 11 -36q4 -16 7 -38q4 -20 6 -46q38 35 72.5 58.5t66 38t58.5 21t50 6.5t47.5 -7t47 -22t42.5 -39t32 -58q32 32 66 56t67 39.5t63 23t55 7.5q36 0 67.5 -13t55 -36t36.5 -55q14 -32 14 -72v-544h-67v534q0 30 -10.5 53t-28.5 39t-42 24t-52 8 q-27 0 -55.5 -10t-56.5 -27t-55 -40t-52 -47v-534h-67v524q0 26 -11 50t-29 43t-42 30t-48 11q-28 0 -55 -9t-55.5 -25t-57 -39t-56.5 -51v-534h-68v560q0 44 -8 77t-16 52z" />
<glyph unicode="n" horiz-adv-x="792" d="M108 700l66 16q6 -14 10 -34q4 -17 8 -41q3 -25 3 -55q35 32 71.5 57.5t72 42t68.5 25.5t62 9q40 0 76.5 -11t64 -32t44 -51t16.5 -67v-559h-68v508q0 32 -7 59t-25.5 47.5t-49 32t-77.5 11.5q-18 0 -40 -6t-45.5 -16.5t-47 -24t-45 -28.5t-39.5 -31t-30 -30v-522h-67 v561q0 49 -7.5 84t-13.5 55z" />
<glyph unicode="o" horiz-adv-x="760" d="M70 356q0 80 24 147t65 115t97 74.5t122 26.5q51 0 93.5 -14.5t77.5 -41t61 -62.5t44 -78.5t27 -88.5t9 -94q0 -83 -25 -148t-66.5 -109.5t-97 -67.5t-117.5 -23q-68 0 -126 26t-99.5 73.5t-65 115t-23.5 149.5zM143 374q0 -36 5 -74t16.5 -74t29.5 -68t45 -55.5t63 -37 t84 -13.5q58 0 101.5 23t72 61t43 89t14.5 105q0 35 -4.5 73t-16 74.5t-29.5 70t-44.5 58.5t-62.5 39.5t-82 14.5q-40 0 -74 -12t-60 -33t-45 -49t-31.5 -60t-18.5 -66t-6 -66z" />
<glyph unicode="p" horiz-adv-x="806" d="M121 706l63 16q4 -12 6 -28q2 -14 4.5 -37t2.5 -56q34 33 68.5 55.5t67 37t63.5 20.5q32 6 60 6q63 0 113 -28t85.5 -77t54.5 -117t19 -146q0 -42 -8 -84.5t-24 -83t-40 -75.5t-55 -61t-70 -41t-85 -15q-24 0 -54 6t-61.5 19t-64.5 33q-32 19 -64 46v-376l-68 -16v867 q0 50 -4 83q-4 34 -9 52zM202 164q23 -25 51 -45.5t57.5 -35.5t59.5 -23t56 -8q40 0 72 13t58 34t44.5 49t30.5 60t18 66t6 65q0 30 -3.5 65.5t-12.5 71.5t-25 69t-40 58t-57 40t-78 15q-65 0 -125 -31t-112 -89v-374z" />
<glyph unicode="q" horiz-adv-x="808" d="M88 352q0 78 19 146t54 117t85.5 77t113.5 28q28 0 59 -6t64 -20.5t67 -37t68 -55.5q0 40 3 65.5t6 38.5h67q-5 -18 -8.5 -51.5t-3.5 -82.5v-851l-68 -16v392q-32 -27 -65 -46.5t-64.5 -32.5t-61 -19t-53.5 -6q-46 0 -85 15t-70.5 41t-55 61t-39.5 75.5t-24 83.5 q-8 42 -8 84zM160 339q0 -32 6 -65.5t18 -65.5t31 -60t44.5 -49t58 -34t72.5 -13q26 0 55.5 8t59 23t58 36t51.5 45v374q-53 58 -112.5 89t-125.5 31q-44 0 -77 -15t-57 -40t-40 -58t-25 -69t-13 -71t-4 -66z" />
<glyph unicode="r" horiz-adv-x="510" d="M112 698l70 18q7 -18 13 -47t6 -63q0 -12 0.5 -19t-1.5 -19q27 38 55 64t55 43t52.5 25.5t49.5 13t44 4.5h36h5h7l-30 -76q-8 1 -18 1.5t-18 0.5q-26 0 -54 -8t-54 -21.5t-49.5 -31.5t-41 -39.5t-27.5 -44.5t-10 -47v-452h-68v558q0 50 -7 83.5t-15 56.5z" />
<glyph unicode="s" horiz-adv-x="661" d="M64 60l35 59q58 -36 115.5 -51t115.5 -15q22 0 45 3.5t44.5 10.5t41 17t33.5 24t23 32t9 39q0 29 -11 50.5t-31 37.5t-47 27.5t-60 19.5l-120 32q-38 10 -70 26t-54.5 37.5t-34.5 49t-12 59.5q0 44 21 81.5t56 64t81.5 41.5t97.5 15q24 0 52 -4t57 -11t58 -17t56 -24 l-30 -54q-24 12 -47.5 21t-47.5 15t-49 9t-53 3q-35 0 -68 -8t-58.5 -24.5t-41 -40t-15.5 -53.5q0 -26 12 -45.5t31 -34t42.5 -24.5t47.5 -16l109 -30q51 -14 88.5 -30.5t62.5 -38t37.5 -49.5t12.5 -63q0 -48 -22 -86.5t-60 -65.5t-87 -42t-105 -15q-30 0 -63.5 3.5t-68 11 t-67.5 20.5t-61 33z" />
<glyph unicode="t" horiz-adv-x="476" d="M51 644v61h93v187l68 14v-201h180l-22 -61h-158v-479q0 -32 4 -54.5t13.5 -36.5t26 -20t40.5 -6q8 0 19.5 1.5t24 4.5t25.5 6.5t23 8.5l16 -48q-10 -4 -25 -9.5t-32 -10t-35 -7.5t-34 -3h-5q-47 0 -75 19q-28 18 -40 50q-14 32 -14 75v509h-93z" />
<glyph unicode="u" horiz-adv-x="801" d="M128 172v530l68 13v-505q0 -80 43 -118t135 -38q30 0 63 12.5t64.5 34.5t58.5 51q28 30 44 64v486l67 13v-516q0 -30 3 -53.5t9 -42.5t14.5 -35t20.5 -28l-48 -54q-12 12 -22 26.5t-18.5 32t-14 38t-9.5 46.5q-31 -38 -64.5 -64t-67.5 -42.5t-68 -23.5t-66 -7 q-40 0 -78 13t-66.5 36t-47 56.5t-20.5 74.5z" />
<glyph unicode="v" horiz-adv-x="680" d="M24 700l70 17l174 -465q3 -8 7.5 -20.5t9.5 -27t10 -30.5t11 -32q12 -36 26 -76q14 40 26 76q5 16 10.5 31.5t10.5 30t9 26.5q5 14 8 22l176 454h72l-279 -706h-75z" />
<glyph unicode="w" horiz-adv-x="996" d="M35 692l68 18l129 -448l49 -178l49 176v-1l130 447h73l131 -447v1l48 -176l49 178l127 444h73l-210 -706h-72l-143 476l-40 141l-38 -142v1l-142 -476h-73z" />
<glyph unicode="x" horiz-adv-x="667" d="M15 0l284 384l-240 310l73 16l203 -278l191 274h86l-244 -321l292 -385h-86l-239 330l-234 -330h-86z" />
<glyph unicode="y" horiz-adv-x="689" d="M36 693l68 23l177 -496q4 -12 8.5 -26.5t10 -30t10.5 -32.5t10 -31q11 -36 23 -74l236 678h82l-278 -762q-15 -42 -33 -79t-40.5 -68t-51.5 -53q-28 -24 -65 -36l-27 58q32 13 57 34.5t45 51t36 67.5q16 39 31 85l-45 -8z" />
<glyph unicode="z" horiz-adv-x="631" d="M57 0v64l439 584h-411l24 56h457v-66l-433 -583h435l-24 -55h-487z" />
<glyph unicode="{" horiz-adv-x="497" d="M67 382v54q28 2 51.5 17.5t40.5 40t26 56.5q9 30 9 66v253q0 39 12 70t31 52t43 33t50 12h100v-61h-83q-30 0 -46.5 -12.5t-25 -31.5t-10 -42.5t-1.5 -46.5v-246q0 -39 -10 -69.5t-25.5 -53.5t-33.5 -39q-19 -16 -35 -26q16 -8 34 -22t33.5 -37t26.5 -55q10 -30 10 -74 v-243q0 -24 1.5 -48t10 -43.5t25 -31.5t46.5 -12h83v-62h-100q-28 0 -52.5 11.5t-43 33t-29.5 53t-11 70.5v252q0 36 -9 68t-26 56.5t-40 40t-52 17.5z" />
<glyph unicode="|" horiz-adv-x="340" d="M134 -25v1095h71v-1095h-71z" />
<glyph unicode="}" horiz-adv-x="497" d="M67 -158h83q30 0 47 12t25 31.5t10 43.5t2 48v243q0 44 10 75t25 54t33 37t34 22q-16 10 -34 26t-33 39t-25 54t-10 69v246q0 23 -2 46.5t-10 42.5t-25 31.5t-47 12.5h-83v61h99q26 0 50.5 -12t44 -33t31 -52t11.5 -70v-253q0 -36 9 -67t25.5 -55.5t40.5 -40t52 -17.5 v-54q-28 -2 -51.5 -17.5t-40 -40t-26 -56.5t-9.5 -68v-252q0 -39 -11 -70.5t-29.5 -53t-43.5 -33t-53 -11.5h-99v62z" />
<glyph unicode="~" horiz-adv-x="933" d="M148 404q12 20 30 40t40 37t47 27.5t53 10.5q24 0 44 -4t37.5 -10.5t34 -14.5t32.5 -18l24 -13q16 -9 35 -17t37.5 -15t35.5 -11q18 -4 30 -4q23 0 41.5 5.5t34.5 15t28 22.5t20 27l33 -23q-12 -22 -29.5 -43t-39 -37.5t-46.5 -26.5q-26 -10 -54 -10q-20 0 -38 4 t-35 10.5t-33 14.5l-32 16l-34 19q-14 8 -29.5 15t-32.5 13.5t-35.5 10.5t-38.5 4q-40 0 -71 -19.5t-55 -51.5z" />
<glyph unicode="&#xe01;" horiz-adv-x="847" d="M88 652q87 61 181.5 94.5t187.5 33.5q100 0 163.5 -29t90.5 -95q4 -12 6.5 -29t4.5 -35.5t2.5 -38t0.5 -36.5v-517h-67v498q0 42 -3 74t-10.5 56.5t-22 41t-38 27.5t-58 15.5t-82.5 4.5q-40 0 -80 -8t-75 -20.5t-63.5 -26.5t-47.5 -26l22 -32q4 -6 10 -14t11.5 -19.5 t9 -26t3.5 -33.5v-511h-67v477q0 39 -8 62.5t-21 41.5z" />
<glyph unicode="&#xe02;" horiz-adv-x="746" d="M28 624q0 22 6.5 40.5t17.5 33.5t24.5 26.5t27.5 19.5q28 16 67 26t85 10q42 0 75 -12t56.5 -33t36 -49t12.5 -62q0 -23 -6.5 -42.5t-17 -38.5t-24.5 -36t-30 -33l-51 -56q-16 -18 -26.5 -32t-16.5 -28.5t-9 -31t-5 -40.5q-1 -8 -2 -24v-44q0 -40 8 -71t25.5 -52 t46.5 -32t72 -11q44 0 74 13t48.5 36.5t26 55t7.5 68.5v534l68 14v-543q0 -22 -2.5 -48.5t-10 -53t-22.5 -51.5t-40 -45t-61.5 -31.5t-87.5 -11.5q-56 0 -97 14.5t-68 42t-40.5 66t-13.5 84.5v84q0 27 5.5 50t16.5 44.5t27 42.5t38 43l41 43q15 16 26 29.5t19 27.5t11.5 29 t3.5 33q0 26 -9.5 45t-25.5 31.5t-38 19t-46 6.5q-14 0 -30 -2t-39 -9q16 -3 24.5 -9t12.5 -11q14 -14 21 -30q7 -17 7 -39t-9 -42t-24 -35t-35 -23t-42 -8t-42 8t-35 23t-23 35t-8 42zM82 624q0 -12 4 -22t11.5 -17t17.5 -12q9 -5 21 -5t22 5t17.5 12t12 17t4.5 22 q0 11 -4.5 21t-12 17.5t-17.5 12t-22 4.5t-21.5 -4.5t-17 -12t-11.5 -17.5t-4 -21z" />
<glyph unicode="&#xe03;" horiz-adv-x="775" d="M15 664q0 24 9.5 45.5t25 37t37 25t45.5 9.5q18 0 34 -5t30 -14t24.5 -21.5t16.5 -27.5q4 -10 6.5 -20.5t2.5 -16.5l12 14q8 8 18 16l99 74q28 -3 51.5 -11.5t40 -24.5t26 -37.5t9.5 -50.5q0 -31 -14 -60q-12 -28 -36 -50l-102 -96q-32 -30 -51 -59t-22 -65 q0 -8 -0.5 -21t-1 -28l-1 -30t-0.5 -29q0 -40 8 -71t26 -52t47 -32t72 -11q44 0 74.5 13t49.5 36.5t27 55t8 68.5v534l67 14v-543q0 -22 -2.5 -48.5t-10.5 -53t-23 -51.5t-40.5 -45t-62 -31.5t-87.5 -11.5q-56 0 -97 14.5t-68.5 42t-41 66t-13.5 84.5v121q0 26 5.5 47 t17.5 40.5t29 38.5t41 41l108 100q16 15 22.5 34.5t6.5 33.5q0 12 -4.5 23t-11.5 19t-17 14t-22 6l-171 -135q-17 -14 -37 -23q-18 -8 -42 -8t-45.5 9t-37 25t-25 37t-9.5 45zM69 664q0 -13 5 -24.5t13.5 -19.5t20 -13t24.5 -5t24.5 5t19.5 13t13 20t5 24q0 13 -5 24.5 t-13 20t-19.5 13.5t-24.5 5t-24.5 -5t-20 -13.5t-13.5 -20t-5 -24.5z" />
<glyph unicode="&#xe04;" horiz-adv-x="858" d="M122 0v574q0 39 23.5 76t65.5 66t100.5 46.5t129.5 17.5q58 0 111.5 -13.5t94 -40t65 -64.5t24.5 -88v-574h-68v534q0 44 -17 78t-49 57t-78 35t-105 12q-23 0 -49 -4t-51 -13t-49 -22.5t-41.5 -32t-28 -41.5t-10.5 -51v-185q36 44 67 71.5t57.5 43.5t49 21t42.5 5 q22 0 42 -8t34 -23t23 -34t9 -42q0 -22 -9 -41.5t-23 -34.5t-34 -23t-42 -8q-34 0 -61 19t-38 49q-4 9 -5.5 17.5t-0.5 20.5q-20 -16 -38.5 -33.5t-32.5 -36t-25 -38.5q-11 -18 -15 -38v-254h-68zM352 400q0 -12 4 -21.5t11.5 -17t17.5 -11.5q9 -5 21 -5t22 4.5t17.5 12 t12.5 17.5q4 9 4 21q0 11 -4.5 21.5t-12 17.5t-17.5 12t-22 5t-21.5 -5t-17 -12t-11.5 -17.5t-4 -21.5z" />
<glyph unicode="&#xe05;" horiz-adv-x="874" d="M122 0v522q0 44 11.5 85.5t35.5 76t61 60.5q38 24 89 36l131 -102l126 103q42 -6 74.5 -22.5t55 -42.5t34.5 -60q12 -32 12 -72v-584h-68v562q0 34 -6 58t-19 42t-31 29t-43 18l-135 -109l-137 108q-26 -6 -48.5 -21t-38.5 -39t-26 -58t-10 -80v-143q36 44 67 71.5 t57.5 43.5t49 21t42.5 5q22 0 42 -8t34 -23t23 -34t9 -42q0 -22 -9 -41.5t-23 -34.5t-34 -23t-42 -8q-34 0 -61 19t-38 49q-4 9 -5.5 17.5t-0.5 20.5q-20 -16 -38.5 -33.5t-32.5 -36t-25 -38.5q-11 -18 -15 -38v-254h-68zM352 400q0 -12 4 -21.5t11.5 -17t17.5 -11.5 q9 -5 21 -5t22 4.5t17.5 12t12.5 17.5q4 9 4 21q0 11 -4.5 21.5t-12 17.5t-17.5 12t-22 5t-21.5 -5t-17 -12t-11.5 -17.5t-4 -21.5z" />
<glyph unicode="&#xe06;" horiz-adv-x="868" d="M50 123q0 28 11 52.5t29 42.5t42 28t52 10q18 0 46 -6v71q0 32 3 54t10 38.5t19 31.5t30 31l108 99q10 8 17 16.5t11 18.5t6 22t2 28q0 14 -7.5 29.5t-28.5 26.5l-152 -138q-16 -14 -36 -22.5t-44 -8.5t-45 9.5t-37 25t-25 37t-9 45.5t9 45t25 37t37 25t45 9 q18 0 34.5 -5t30 -14.5t24.5 -22.5q11 -12 18 -28q2 -3 4 -10q1 -8 1 -18q6 9 15 16.5t11 9.5l84 72q26 -4 45 -16t32 -27.5t19.5 -33.5t7.5 -35q2 -38 -8 -70t-41 -60l-85 -78q-20 -18 -32 -30t-18.5 -25.5t-9 -31t-2.5 -43.5v-124q68 -74 130.5 -111t114.5 -37 q42 0 68.5 11t41.5 33.5t20 57t5 82.5v517l68 14v-595q0 -38 -10 -71.5t-32 -60t-56 -41.5t-84 -15q-28 0 -56 5t-58 18t-64 36q-32 23 -70 59q-4 -28 -17 -50.5t-31 -38t-39 -23t-45 -7.5q-28 0 -52 10.5t-42 28.5t-29 42.5t-11 52.5zM106 124q0 -16 6 -31t17 -25.5t25 -17 t30 -6.5t30.5 6.5t25 17t16.5 24.5q7 16 7 32t-6.5 30t-17 25t-25 17t-30.5 6t-30 -6t-25 -17t-17 -25t-6 -30zM106 664q0 -13 5 -24.5t13 -20.5t20 -14t24 -5q13 0 24.5 5t20 14t13.5 20t5 25q0 13 -5 24t-13.5 19.5t-19.5 13.5t-25 5q-13 0 -24.5 -5t-19.5 -13.5 t-13 -19.5t-5 -24z" />
<glyph unicode="&#xe07;" horiz-adv-x="658" d="M42 540l68 21l164 -508h37q40 3 69.5 12.5t49 30t29 53.5t9.5 81v288v12v14q0 8 1 18q-14 -8 -28 -12t-25 -4q-24 0 -45 9.5t-37 25t-25 37t-9 45.5t9 45.5t25 37.5t38 25.5t46 9.5q32 0 54.5 -9.5t36.5 -25.5t20.5 -37t6.5 -42v-443q0 -22 -3.5 -47.5t-13 -51.5 t-26 -50.5t-43 -43.5t-64.5 -30t-89 -11h-17t-21.5 1.5t-22 3t-18.5 2.5zM354 662q0 -14 5 -25t14 -20t21 -14q10 -5 24 -5t25.5 5t20 14t13.5 20t5 25t-5 25t-13.5 20t-20 14t-25.5 5t-25 -5t-20 -14t-14 -20t-5 -25z" />
<glyph unicode="&#xe08;" horiz-adv-x="738" d="M37 688q35 20 76 37t84 29.5t87 19t85 6.5q68 0 115.5 -13.5t76.5 -42t42 -71.5t13 -101v-334q0 -22 -1 -47t-7 -51t-18 -49t-34 -41t-55 -29t-81 -11h-15t-19 1l-20 2t-17 3l-41 266q-2 13 -3 22.5t-3 18.5q-6 -6 -15 -10.5t-18 -7.5t-18 -4t-16 -1q-21 0 -40 7.5 t-34.5 21t-26 31.5t-12.5 40q-4 26 4 50t25 43t41 31t52 12q24 0 43 -8t33 -21t22 -30t11 -35l55 -368l15 -1.5t8 -0.5q44 2 67.5 14.5t34.5 35t13 54.5t2 74v308q0 26 -2 50t-9 43.5t-20 35.5t-32 27q-22 13 -55.5 18.5t-78.5 5.5q-32 0 -71.5 -8t-78.5 -20t-73 -27 q-36 -15 -58 -29zM174 396q0 -14 5 -25t14 -20t20 -14t25 -5t25 5t20 14t14 20t5 25t-5 25t-14 20t-20 14t-25 5t-25 -5t-20 -14t-14 -20t-5 -25z" />
<glyph unicode="&#xe09;" horiz-adv-x="849" d="M41 663q94 59 194.5 88t203.5 29q68 0 116.5 -15t79.5 -47t45 -81t14 -115v-262q24 -8 44 -21t33 -31t20 -39t7 -44q0 -28 -11 -52.5t-29 -43.5t-43 -29.5t-53 -10.5t-53.5 9.5t-44.5 26.5t-30 41q-12 24 -12 52q0 16 6 34t18 32q-38 -16 -72 -37t-65 -44.5t-60 -50 t-57 -52.5h-79v244v11q1 7 1 15v18q-14 -8 -28 -12t-25 -4q-24 0 -45.5 9t-37 25t-24.5 37t-9 45t9.5 46t25.5 38t37 25t47 9q32 0 54 -10t36 -26t21 -36t7 -42v-324q52 48 99 82.5t90 57.5t82 35.5t74 16.5v241q0 32 -2.5 60.5t-10.5 53.5t-22 45q-16 20 -40 34 q-24 13 -57 18t-78 5q-40 0 -84.5 -6.5t-89.5 -19t-89 -31.5q-44 -18 -84 -44zM100 387q0 -14 5 -25.5t13.5 -20t20 -13.5t25.5 -5t25 5t20 13.5t14 20.5t5 25q0 14 -5 25.5t-14 20t-21 13.5q-10 5 -24 5t-25.5 -5t-20 -13.5t-13.5 -20t-5 -25.5zM579 126q0 -17 6.5 -32 t17.5 -26t26 -17.5t31 -6.5t31 6.5t26 17.5t18 25.5t7 32.5q0 16 -7 31t-18 26t-25 17q-16 6 -32 6q-17 0 -31.5 -6t-25.5 -17t-17.5 -26t-6.5 -31z" />
<glyph unicode="&#xe0a;" horiz-adv-x="751" d="M28 624q0 22 6.5 40.5t17.5 33.5t24.5 26.5t27.5 19.5q28 16 67 26t85 10q58 0 98.5 -22t61.5 -58h14q8 0 17 0.5t17 1.5q26 4 49 12.5t44 23t38.5 36.5t33.5 53q7 13 12.5 26t9.5 25l65 -28q-3 -10 -7.5 -19t-8.5 -19q-10 -22 -23.5 -44t-32 -41t-42.5 -33t-54 -22v-2 q21 -12 36.5 -31t25.5 -45t14.5 -57t4.5 -65v-242q0 -22 -3.5 -49t-13 -54t-26 -51.5t-43 -44t-64 -31t-87.5 -11.5q-58 0 -102 15.5t-74 44t-46 68t-16 89.5v74q0 27 8.5 50.5t23 45.5t33.5 44t39 44l41 42q15 16 28 29.5t22 27t14.5 27.5t5.5 32q0 26 -9.5 45t-25.5 31.5 t-38 19t-46 6.5q-14 0 -30 -2t-39 -9q16 -3 24.5 -9t12.5 -11q14 -14 21 -30q7 -17 7 -39t-9 -42t-24 -35t-35 -23t-42 -8t-42 8t-35 23t-23 35t-8 42zM82 624q0 -12 4 -22t11.5 -17t17.5 -12q9 -5 21 -5t22 5t17.5 12t12 17t4.5 22q0 11 -4.5 21t-12 17.5t-17.5 12t-22 4.5 t-21.5 -4.5t-17 -12t-11.5 -17.5t-4 -21zM222 222q0 -40 11.5 -71.5t34 -53t54.5 -33.5t74 -12q41 0 72 13.5t51.5 38t31.5 58.5t11 74v230q0 36 -6 68.5t-19 56.5t-32 38t-47 14h-24q2 -9 2 -19q0 -23 -8 -42t-20 -36.5t-27 -33.5q-15 -18 -31 -34l-53 -56 q-16 -18 -28.5 -33t-21.5 -30t-15 -32t-9 -41q0 -4 -0.5 -8t-0.5 -10.5v-17v-28.5z" />
<glyph unicode="&#xe0b;" horiz-adv-x="807" d="M15 664q0 24 9.5 45.5t25 37t37 25t45.5 9.5q18 0 34 -5t30 -14t24.5 -21.5t16.5 -27.5q4 -10 6.5 -20.5t2.5 -16.5l12 14q8 8 18 16l99 74q44 -6 75.5 -25t43.5 -55q6 0 13 0.5t13 1.5q23 2 47.5 12t46.5 27t42 41t34 55q4 10 9 20t9 23l65 -28q-3 -10 -7 -19t-8 -19 q-9 -22 -23.5 -44t-33.5 -41.5t-44 -34.5q-25 -14 -53 -22v-2q21 -12 36.5 -31t25.5 -45t14.5 -57t4.5 -65v-244q0 -22 -3.5 -49t-13.5 -53.5t-27 -51t-43.5 -43.5t-64 -30.5t-87.5 -11.5q-58 0 -102 15.5t-75 44t-46.5 68t-15.5 89.5v111q0 26 5.5 47t17.5 40.5t29 38.5 t41 41l108 100q16 15 22.5 34.5t6.5 33.5q0 12 -4.5 23t-11.5 19t-17 14t-22 6l-171 -135q-17 -14 -37 -23q-18 -8 -42 -8t-45.5 9t-37 25t-25 37t-9.5 45zM69 664q0 -13 5 -24.5t13.5 -19.5t20 -13t24.5 -5t24.5 5t19.5 13t13 20t5 24q0 13 -5 24.5t-13 20t-19.5 13.5 t-24.5 5t-24.5 -5t-20 -13.5t-13.5 -20t-5 -24.5zM275 223q0 -40 11.5 -71.5t34 -53.5t55 -34t74.5 -12q41 0 72.5 13.5t52.5 38t32 58.5t11 74v230q0 36 -6 68.5t-19 56.5t-32 38t-47 14h-13q-2 -28 -15 -53q-14 -24 -34 -44l-102 -96q-32 -30 -51 -59t-22 -65 q0 -8 -0.5 -20t-1 -26t-0.5 -28.5v-28.5z" />
<glyph unicode="&#xe0c;" horiz-adv-x="1238" d="M80 651q42 30 88 54t93.5 40.5t95 25.5t93.5 9q100 0 164 -29t90 -95q4 -12 7 -29t4.5 -36t2 -38t0.5 -37v-302q25 -28 55 -55t60.5 -50t59.5 -37t53 -14q25 0 44 9t32 30t19.5 54t6.5 81v527l68 14v-605q0 -37 -12 -69.5t-35 -56.5t-54 -38t-69 -14q-26 0 -50 8t-48 24 t-50 38t-56 50q-2 -28 -15 -50.5t-31 -38t-41 -24t-47 -8.5q-28 0 -52.5 10.5t-43 28.5t-28.5 42.5t-10 52.5t10 52.5t28.5 42.5t43 28.5t52.5 10.5q10 0 19 -0.5t23 -5.5v247q0 42 -2.5 74t-10 56.5t-22 41t-38 27.5t-58.5 16t-83 5q-40 0 -78 -7.5t-72 -19t-64 -26.5 t-53 -29l17 -25q4 -8 8 -16.5t7 -19.5t4 -26t1 -36v-261v-11.5v-14.5v-18q14 8 31 12t30 4q23 0 43 -8.5t36 -24t25 -36.5t9 -47q0 -24 -9.5 -46t-25 -38t-37.5 -25t-46 -9q-33 0 -56.5 10t-38.5 28t-21.5 42.5t-6.5 52.5v353q0 22 -0.5 38.5t-1.5 30t-5 24.5t-10 21 q-7 12 -18 28t-24 33zM197 108q0 -14 5 -25t13.5 -20t20.5 -14t25 -5q14 0 25.5 5t20 14t13.5 20t5 25t-5 25.5t-13.5 20t-20.5 13.5t-25 5q-14 0 -25.5 -5t-20 -13.5t-13.5 -20t-5 -25.5zM530 124q0 -16 6 -31t16.5 -25.5t25 -17t30.5 -6.5t30 6.5t25 17t17 24.5q6 16 6 32 t-6 30t-17 25t-25 17t-30 6t-30.5 -6t-25 -17t-16.5 -25t-6 -30z" />
<glyph unicode="&#xe0d;" horiz-adv-x="1207" d="M79 662q37 26 80 48t90 37.5t95.5 24t96.5 8.5q92 0 150 -30q57 -30 83 -94q5 -12 8.5 -33t5.5 -43.5t2 -43v-32.5v-274q0 -38 8.5 -71t28 -56t52.5 -36.5t82 -13.5q78 0 117.5 46.5t39.5 136.5v524l67 12v-544q0 -22 -2.5 -48t-11 -53t-24.5 -52t-42.5 -44t-66.5 -30.5 t-95 -11.5q-50 0 -91 15.5t-69.5 43.5t-43.5 65t-15 81l-1 314q0 30 -2 57.5t-8.5 51t-19.5 41.5t-35 31t-54 20t-78 7q-29 0 -61.5 -5t-66.5 -14t-68 -21t-65 -26l15 -22q11 -16 18.5 -43t7.5 -67v-266v-11.5v-14.5v-18q14 8 31 12t30 4q23 0 43 -8.5t36 -24t25 -36.5 t9 -47q0 -24 -9.5 -46t-25 -38t-37.5 -25t-46 -9q-33 0 -56.5 10t-38.5 28t-22 42.5t-7 52.5v391q0 29 -3 50.5t-17 39.5zM197 108q0 -14 5 -25t13.5 -20t20.5 -14t25 -5q14 0 25.5 5t20 14t13.5 20t5 25t-5 25.5t-13.5 20t-20.5 13.5t-25 5q-14 0 -25.5 -5t-20 -13.5 t-13.5 -20t-5 -25.5zM624 -144q2 19 10 36q10 20 27 34.5t37 21t41 5.5t42 -11q32 -16 48 -45.5t12 -62.5q-1 -8 -4 -16.5t-8 -17t-11 -16.5t-12 -12q12 -1 22 -1t24 1q40 2 72 17t58.5 35t45.5 42q20 20 33 36l52 -39q-28 -38 -61.5 -66t-72.5 -46.5t-81 -28.5 q-44 -9 -88 -8q-19 0 -36.5 1t-35.5 5t-36 12q-17 8 -35 22q-14 11 -24.5 27.5t-15.5 35.5t-3 39zM675.5 -152.5q-0.5 -11.5 3 -21.5t10.5 -19t18 -13q10 -6 21.5 -6.5t21.5 3t18.5 11t13.5 17.5q6 10 6 21.5t-3 21.5t-10 19t-18 13q-10 5 -21.5 6t-21.5 -2.5t-19 -10.5 t-13 -18q-6 -10 -6.5 -21.5z" />
<glyph unicode="&#xe0e;" horiz-adv-x="858" d="M39 108q0 26 9 47t24.5 36.5t35.5 24t44 8.5q14 0 30 -4t31 -12q-1 10 -1 18v14.5v11.5v218q0 26 -7 46t-18 35t-24 27t-25 22l-56 46q50 40 99 66t97 41t96 21t96 6q72 0 125.5 -19t86.5 -53q18 -18 28.5 -40t16 -46t7.5 -49t2 -50v-675q0 -30 -7.5 -57t-24 -49 t-42.5 -35t-62 -16h-53l-73 65q-22 -20 -40 -33t-35 -20t-34 -10t-35 -3q-22 0 -43 7.5t-37 21t-25 32t-9 41.5t9 42.5t25.5 33.5t39.5 22t51 8q20 0 37.5 -6t34 -15.5t32 -22t31.5 -24.5q28 26 49 56l40 -30q-6 -8 -11.5 -15.5t-11.5 -14.5l-12 -14q-6 -8 -14 -16l56 -46 h29q12 0 24.5 8t21.5 22t15 32t6 36v635q0 34 -2 62t-8 50t-15 39.5t-23 30.5q-52 52 -163 52q-34 0 -70.5 -5.5t-71.5 -15.5t-68 -25t-59 -33q15 -11 31.5 -25.5t29.5 -32.5t22 -39t9 -45v-373q0 -28 -7 -52.5t-22 -42.5t-38 -28t-56 -10q-25 0 -46.5 9t-37 25t-25.5 38 q-9 22 -9 46zM94 108q0 -14 5 -25t13.5 -20t20 -14t25.5 -5t25 5t20 14t14 21q5 10 5 24t-5 25.5t-14 20t-21 13.5q-10 5 -24 5t-25.5 -5t-20 -13.5t-13.5 -20t-5 -25.5zM280 -207q0 -13 6 -22t15 -15t21 -9t22 -3q7 0 16 1.5t21 6.5t26.5 14.5t30.5 24.5q-6 4 -16.5 12.5 t-24 17.5t-29.5 15t-30 6q-24 0 -41 -12t-17 -37z" />
<glyph unicode="&#xe0f;" horiz-adv-x="858" d="M39 108q0 26 9 47t24.5 36.5t35.5 24t44 8.5q14 0 30 -4t31 -12q-1 10 -1 18v14.5v11.5v218q0 26 -7 46t-18 35t-24 27t-25 22l-56 46q50 40 99 66t97 41t96 21t96 6q72 0 125.5 -19t86.5 -53q18 -18 28.5 -39t16 -45t7.5 -49t2 -49v-692q0 -26 -3 -51t-17 -45.5t-43 -33 t-80 -12.5l-77 68l-80 -70l-85 74q-25 -22 -44.5 -35.5t-36 -21.5t-31.5 -11.5t-29 -3.5q-26 -1 -49 6.5t-40 21t-27 32t-10 40.5q0 25 10 44.5t28 33.5t41 21.5t50 7.5q20 0 37.5 -4t35 -11.5t35 -19.5t37.5 -26q12 10 23 22.5t20 24.5l37 -27q-6 -12 -17.5 -25t-25.5 -27 l41 -34l80 68l95 -82q24 0 35.5 8t16.5 20t5 25v23v652q0 34 -2 61t-8 49t-15 39t-23 30q-52 52 -163 52q-34 0 -70.5 -5.5t-71.5 -15.5t-68 -25t-59 -33q15 -11 31.5 -25.5t29.5 -32.5t22 -39t9 -45v-373q0 -28 -7 -52.5t-22 -42.5t-38 -28t-56 -10q-25 0 -46.5 9t-37 25 t-25.5 38q-9 22 -9 46zM94 108q0 -14 5 -25t13.5 -20t20 -14t25.5 -5t25 5t20 14t14 21q5 10 5 24t-5 25.5t-14 20t-21 13.5q-10 5 -24 5t-25.5 -5t-20 -13.5t-13.5 -20t-5 -25.5zM144 -208q0 -12 6 -20.5t15 -14.5t20 -9t21 -3q9 0 22.5 4.5t28.5 12t30 17t27 19.5 q-27 21 -54.5 32.5t-53.5 11.5q-8 0 -19 -3t-20.5 -8t-16 -15t-6.5 -24z" />
<glyph unicode="&#xe10;" horiz-adv-x="738" d="M37 688q35 20 76 37t84 29.5t87 19t85 6.5q42 0 75 -5t60 -15q37 7 68 18q32 10 50 22q24 14 43 31t31 31l48 -50q-13 -14 -33.5 -33t-46.5 -33q-19 -11 -44.5 -19.5t-47.5 -14.5q24 -28 34 -68t10 -92v-334q0 -22 -1 -47.5t-7 -51t-18 -49t-34 -41.5t-55 -29t-81 -11 q-6 0 -15 0.5t-19 1.5l-20 2t-17 2l-41 267q-2 13 -3 22.5t-3 18.5q-6 -6 -15 -10.5t-18 -7.5t-18 -4t-16 -1q-21 0 -40 7.5t-34.5 21t-26 31.5t-12.5 40q-4 26 4 50t25 43t41 31t52 12q24 0 43 -8t33 -21t22 -30t11 -35l55 -368l15 -1.5t8 -0.5q44 2 67.5 14t34.5 35t13 55 t2 74v308q0 26 -2 50t-9 43.5t-20 35.5t-32 27q-22 13 -55.5 18.5t-78.5 5.5q-32 0 -71.5 -8t-78.5 -20t-73 -27q-36 -15 -58 -29zM38 -298q0 24 10 43t27.5 32t40 20t46.5 7q32 0 53 -8t39 -18l36 -22q6 8 13 24t11 32l46 -25q-4 -14 -9 -27.5t-16 -31.5l105 -68h36 q8 0 20 2.5t24 12t20 27t8 47.5q-7 -4 -20 -6t-23 -2q-24 0 -42.5 8t-30.5 21.5t-18.5 30t-6.5 34.5q0 22 8.5 40.5t22.5 33t33 23t40 8.5q22 0 40.5 -8t33 -23t23 -36t8.5 -48v-68q0 -30 -8 -57t-24 -48.5t-42 -34.5t-62 -16h-54l-122 77q-32 -40 -72.5 -59.5t-87.5 -17.5 q-18 0 -37 7.5t-34.5 20.5t-25 31t-9.5 42zM99 -298q0 -10 5.5 -19t13.5 -15t18 -10t18 -4q30 0 57 14t49 38l-26 18q-14 8 -34 16q-18 8 -38 8q-9 0 -20 -2t-20.5 -7t-16 -14t-6.5 -23zM174 396q0 -14 5 -25t14 -20t20 -14t25 -5t25 5t20 14t14 20t5 25t-5 25t-14 20 t-20 14t-25 5t-25 -5t-20 -14t-14 -20t-5 -25zM455 -164q0 -10 4 -20t11 -17t16.5 -11t19.5 -4t20 4t17 11t11 17t4 20t-4 19t-11 16t-17 11t-20 4t-19.5 -4t-16.5 -11t-11 -16t-4 -19z" />
<glyph unicode="&#xe11;" horiz-adv-x="938" d="M14 664q0 24 9 45t24.5 37t37 25t45.5 9q33 0 59.5 -15t41.5 -44q2 -3 5 -12.5t4 -20.5q2 5 5.5 9.5t7 8.5t6.5 7t3 5l56 61q29 -6 49 -17.5t32.5 -27t18.5 -34t7 -36.5q48 59 100.5 88.5t105.5 29.5q46 0 80.5 -13.5t57.5 -37.5t35 -57.5t12 -75.5v-598h-68v546 q0 33 -3 63.5t-16 54.5t-38 38t-68 14q-30 0 -63.5 -18t-65.5 -48t-61 -68t-50.5 -79.5t-34 -83.5t-12.5 -79v-340h-68v323q0 30 4 60t14.5 62.5t28 68.5t44.5 78q3 8 7 21t4 27q0 21 -7 39.5t-31 29.5l-112 -119q-8 -9 -18 -16.5t-22 -13.5t-25 -9t-25 -3q-24 0 -45.5 9 t-37 25t-24.5 37t-9 45zM67 664q0 -13 5 -24.5t13.5 -20t20 -13.5t24.5 -5t24.5 5t20 13.5t13.5 20t5 24.5t-5 24.5t-13.5 20t-20 13.5t-24.5 5t-24.5 -5t-20 -13.5t-13.5 -20t-5 -24.5z" />
<glyph unicode="&#xe12;" horiz-adv-x="1279" d="M122 0v496q0 57 12 104.5t36.5 84.5t61.5 61.5t87 35.5l143 -110l136 110q83 -14 128 -65t45 -133v-372q28 -35 57.5 -63.5t58 -48.5t54 -31t47.5 -11q31 0 50.5 8.5t31 27t16 46.5t4.5 67v552l67 14v-598q0 -37 -7.5 -70.5t-25.5 -59t-47 -40.5t-73 -15q-20 0 -42 4.5 t-48 17t-57 35.5t-69 59q-4 -28 -16.5 -50.5t-30 -37t-39.5 -22t-45 -7.5q-28 0 -52.5 10.5t-42.5 28.5t-28 42.5t-10 52.5t10 52.5t28 42.5t42.5 28.5t52.5 10.5q10 0 22.5 -1.5t23.5 -7.5v316q0 38 -6 63t-18 41t-30 26t-42 19l-147 -111l-140 108q-25 -5 -48.5 -17.5 t-41.5 -36.5t-29 -59.5t-11 -85.5v-450q14 8 31.5 20.5t36.5 26.5t39 31t39 35l26 26t27 29.5t26 33t23 36.5q-3 -1 -8.5 -2t-11.5 -2t-12 -1t-12 1q-20 2 -36 11t-28 22.5t-18 30.5t-6 38q0 22 8 41.5t23 34.5t34 23t41 8q36 0 62 -18q27 -18 39 -48q4 -11 6.5 -26.5 t2.5 -29.5q0 -18 -4 -35t-10 -36q-10 -26 -25 -50t-33 -46.5t-38.5 -43.5t-41.5 -41q-35 -32 -79.5 -65t-99.5 -65h-69zM358 397q0 -12 4 -21.5t12 -17.5t18 -12t21 -4q12 0 21.5 4t17.5 12t12 18t4 21q0 12 -4 21.5t-12 17.5t-18 12t-21 4q-12 0 -21.5 -4t-17.5 -12 t-12 -17.5t-4 -21.5zM580 124q0 -16 6 -30t17 -25t25 -17t30 -6t30.5 6t25 17t17 25t6.5 30t-6.5 30.5t-17 25t-25 17t-30.5 6.5t-30 -6.5t-25 -17t-17 -25t-6 -30.5z" />
<glyph unicode="&#xe13;" horiz-adv-x="1251" d="M79 662q37 26 80.5 48t91 37.5t96.5 24t97 8.5q92 0 151 -30t85 -94q5 -12 8 -33t4.5 -43.5t2.5 -43t1 -32.5v-429l-1 3q50 46 96 78t87.5 54t79.5 34t72 16v499l67 13v-512q24 -8 43.5 -21t32.5 -31t20 -39t7 -44q0 -28 -10.5 -52.5t-29 -43.5t-43.5 -29.5t-53 -10.5 t-53 9.5t-44 26.5t-31 41q-11 24 -11 52q0 16 5 34q6 18 18 32q-38 -16 -72 -37t-65 -44.5t-60 -50t-57 -52.5h-66v508q0 30 -2 57.5t-9 51t-20 41.5t-35 31t-55 20t-78 7q-29 0 -62 -5t-67.5 -14t-69 -21t-65.5 -26l15 -22q11 -16 18.5 -43t7.5 -67v-266v-11.5v-14.5v-18 q14 8 31 12t30 4q23 0 43 -8.5t36 -24t25 -36.5t9 -47q0 -24 -9.5 -46t-25 -38t-37.5 -25t-46 -9q-33 0 -56.5 10t-38.5 28t-22 42.5t-7 52.5v391q0 29 -3 50.5t-17 39.5zM197 108q0 -14 5 -25t13.5 -20t20.5 -14t25 -5q14 0 25.5 5t20 14t13.5 20t5 25t-5 25.5t-13.5 20 t-20.5 13.5t-25 5q-14 0 -25.5 -5t-20 -13.5t-13.5 -20t-5 -25.5zM982 126q0 -17 6 -32t17 -26t26 -17.5t32 -6.5q16 0 31 6.5t26 17.5t17.5 25.5t6.5 32.5q0 16 -6.5 31t-17.5 26t-25.5 17t-31.5 6t-32 -6t-26 -17t-17 -26t-6 -31z" />
<glyph unicode="&#xe14;" horiz-adv-x="873" d="M122 0v574q0 39 24.5 75.5t68 66t103.5 47t132 17.5q58 0 112 -13.5t96 -40t68 -64.5q24 -38 24 -88v-574h-67v528q0 33 -9 62q-8 30 -26 52q-32 38 -88 56.5t-133 18.5q-22 0 -48 -4.5t-52.5 -12.5t-51 -22t-43.5 -32t-30.5 -42t-11.5 -54v-488q14 8 31.5 20t36 26.5 t38.5 31t39 34.5q12 12 25.5 26t27.5 29.5t26 33t22 36.5q-3 -1 -7.5 -2t-10.5 -2t-12 -1t-12 1q-20 2 -36.5 11t-28 22.5t-18.5 30.5t-7 38q0 22 9 41.5t23 34.5t34 23t42 8q36 0 62 -18t38 -48q4 -11 7 -26.5t3 -29.5q0 -18 -5 -35t-11 -36q-10 -26 -25 -50t-33 -46.5 t-38 -43.5t-41 -41q-35 -32 -79 -65t-100 -65h-68zM356 397q0 -12 5 -21.5t12 -17.5t17 -12t22 -4t22 4t17 12t12 18t5 21q0 12 -5 21.5t-12 17.5t-17 12t-22 4t-22 -4t-17 -12t-12 -17.5t-5 -21.5z" />
<glyph unicode="&#xe15;" horiz-adv-x="893" d="M122 0v494q0 57 11 105t35 84.5t61 61.5t91 35l141 -106l138 106q89 -15 130 -65.5t41 -131.5v-583h-67v560q0 38 -5.5 64t-17 43t-29 27t-39.5 17l-150 -111l-146 108q-24 -4 -46 -17.5t-40 -38t-29 -60.5t-11 -86v-444q14 8 32 20t37 26.5t38.5 31t38.5 34.5l26 26 t27 29.5t26 33t23 36.5q-3 -1 -8.5 -2t-11.5 -2t-12 -1t-12 1q-20 2 -36 11t-28 22.5t-18 30.5t-6 38q0 22 8 41.5t23 34.5t34 23t41 8q36 0 62 -18q27 -18 39 -48q4 -11 6.5 -26.5t2.5 -29.5q0 -18 -4 -35t-10 -36q-10 -26 -25 -50t-33 -46.5t-38.5 -43.5t-41.5 -41 q-35 -32 -79.5 -65t-99.5 -65h-69zM358 397q0 -12 4 -21.5t12 -17.5t18 -12t21 -4q12 0 21.5 4t17.5 12t12 18t4 21q0 12 -4 21.5t-12 17.5t-18 12t-21 4q-12 0 -21.5 -4t-17.5 -12t-12 -17.5t-4 -21.5z" />
<glyph unicode="&#xe16;" horiz-adv-x="857" d="M88 652q44 30 90 54t94 40.5t96 25t94 8.5q50 0 92 -6t74 -20t55 -37t37 -57q4 -12 7 -29t4.5 -37t2.5 -40t1 -37v-517h-67v498q0 42 -3 74t-11.5 56.5t-23.5 41.5t-39.5 27.5t-59.5 15.5t-83 5q-40 0 -80 -8.5t-76 -20.5t-65.5 -26.5t-48.5 -26.5l22 -32q4 -6 10 -14 t11.5 -19.5t9 -26t3.5 -33.5l1 -259q0 -4 -0.5 -11.5t-0.5 -14.5v-18q14 8 31 12t31 4q23 0 43 -8.5t35.5 -24t24.5 -36.5t9 -47q0 -24 -9 -46t-25 -38t-38 -25t-46 -9q-33 0 -56.5 10t-38 28t-21 42.5t-6.5 52.5l-1 354q0 39 -8 62.5t-21 41.5zM226 108q0 -14 5 -25 t13.5 -20t20 -14t25.5 -5t25 5t20 14t14 20t5 25t-5 25.5t-14 20t-21 13.5q-10 5 -24 5t-25.5 -5t-20 -13.5t-13.5 -20t-5 -25.5z" />
<glyph unicode="&#xe17;" horiz-adv-x="881" d="M30 662q0 24 9 46t25 38t38 25t46 9q32 0 54.5 -9.5t36.5 -25.5t20.5 -36.5t6.5 -42.5v-140q5 6 15.5 20t20.5 25q34 38 67.5 75.5t69 67.5t74.5 48t85 18q47 0 78 -12t49.5 -36t26 -59t7.5 -81v-592h-68v552q0 35 -3.5 64.5t-13.5 51.5t-29 34t-51 12q-28 0 -58 -14.5 t-60.5 -38t-60.5 -52.5t-57 -60t-50.5 -61t-41.5 -53v-435h-68v518v11.5v14.5q0 8 1 18q-14 -8 -28 -12t-25 -4q-24 0 -45 9t-37 25t-25 37t-9 45zM84 662q0 -14 5 -25.5t14 -20t21 -13.5q10 -5 24 -5t25.5 5t20 13.5t13.5 20t5 25.5t-5 25t-13.5 20t-20 14t-25.5 5t-25 -5 t-20 -14t-14 -20t-5 -25z" />
<glyph unicode="&#xe18;" horiz-adv-x="802" d="M117 522q-1 58 12 105.5t45 81.5t84 53q54 18 132 18q82 0 154 -19t140 -61l-34 -56q-23 14 -51.5 27.5t-60.5 23.5t-65 16.5t-65 6.5q-109 0 -166 -44q-58 -44 -54 -134l331 -47q38 -4 68.5 -12t51.5 -24.5t31.5 -45.5t10.5 -74v-135q0 -46 -20.5 -86t-55.5 -68t-83 -44 q-48 -15 -104 -15q-74 0 -130 16t-93 44.5t-56 67.5t-19 84v164l68 15v-166q0 -28 9 -51t25 -41t36 -31t43 -22t47 -13q26 -4 48 -4q54 0 95 13t68 36t41 56t14 74v102q0 21 -3.5 37t-15 28t-33.5 20t-60 14l-384 52z" />
<glyph unicode="&#xe19;" horiz-adv-x="872" d="M20 663q0 24 9 45.5t25 37.5t38 25.5t46 9.5q32 0 54.5 -9.5t36.5 -25.5t20.5 -37t6.5 -42v-603q50 47 104 82t106.5 59t100 37.5t83.5 17.5v499l68 15v-515q24 -8 43 -20.5t32.5 -30.5t20.5 -39t7 -44q0 -28 -10.5 -52.5t-29.5 -43.5t-43.5 -29.5t-52.5 -10.5t-53.5 9 t-44.5 26t-30 41.5t-11 54.5q0 5 1 13t3.5 17.5t6.5 18.5t10 15q-46 -13 -85.5 -31.5t-75.5 -42.5t-69 -51.5t-66 -58.5h-83v518v12v14q0 8 1 18q-14 -8 -28 -12t-25 -4q-24 0 -45 9.5t-37 25t-25 37t-9 45.5zM74 662q0 -14 5 -25t14 -20t21 -14q10 -5 24 -5t25.5 5t20 14 t13.5 20t5 25t-5 25t-13.5 20t-20 14t-25.5 5t-25 -5t-20 -14t-14 -20t-5 -25zM602 126q0 -17 6.5 -32t17.5 -26t25.5 -17.5t32.5 -6.5q16 0 31 6.5t26 17.5t17 25.5t6 32.5q0 16 -6 31t-17 26t-26 17t-31 6q-17 0 -32 -6t-26 -17t-17.5 -26t-6.5 -31z" />
<glyph unicode="&#xe1a;" horiz-adv-x="869" d="M30 663q0 24 9 45.5t25 37.5t38 25.5t46 9.5q32 0 54.5 -9.5t36.5 -25.5t20.5 -37t6.5 -42v-435q0 -40 13 -73t39 -57t66 -37t94 -13q34 0 70 9t65 29t48 50t19 74v545l67 14v-572q0 -39 -18.5 -77t-55.5 -68t-91 -48.5t-125 -18.5q-56 0 -102.5 15.5t-80 44t-53.5 67.5 q-20 40 -23 86v316v12v14q0 8 1 18q-14 -8 -28 -12t-25 -4q-24 0 -45 9.5t-37 25t-25 37t-9 45.5zM84 662q0 -14 5 -25t14 -20t21 -14q10 -5 24 -5t25.5 5t20 14t13.5 20t5 25t-5 25t-13.5 20t-20 14t-25.5 5t-25 -5t-20 -14t-14 -20t-5 -25z" />
<glyph unicode="&#xe1b;" horiz-adv-x="879" d="M30 663q0 24 9 45.5t25 37.5t38 25.5t46 9.5q32 0 54.5 -9.5t36.5 -25.5t20.5 -37t6.5 -42v-435q0 -40 13.5 -73t41 -57t68.5 -37t95 -13q22 0 46 4t47 12.5t43.5 21.5t36 31t24.5 41.5t9 51.5v908l67 14v-935q0 -39 -19.5 -77t-57.5 -68t-93 -48.5t-125 -18.5 q-56 0 -103 15.5t-82 44t-55 67.5q-21 40 -24 86v316v12v14q0 8 1 18q-14 -8 -28 -12t-25 -4q-24 0 -45 9.5t-37 25t-25 37t-9 45.5zM84 662q0 -14 5 -25t14 -20t21 -14q10 -5 24 -5t25.5 5t20 14t13.5 20t5 25t-5 25t-13.5 20t-20 14t-25.5 5t-25 -5t-20 -14t-14 -20 t-5 -25z" />
<glyph unicode="&#xe1c;" horiz-adv-x="869" d="M122 198v469q0 22 6.5 42.5t20.5 36.5t36.5 25.5t54.5 9.5q24 0 46 -9.5t38 -25.5t25 -37t9 -46q0 -24 -9 -45.5t-24.5 -37t-37 -25t-45.5 -9.5q-11 0 -24.5 4t-27.5 12v-18v-14.5v-11.5v-297q0 -68 25 -105.5t72 -49.5l145 204l152 -202q20 2 37 10t30 26t20.5 47 t7.5 72l-1 537l69 12v-543q0 -54 -10.5 -95t-32.5 -70t-57 -47t-84 -27l-129 176l-128 -177q-42 6 -75.5 23.5t-57.5 45t-37.5 63t-13.5 77.5zM176 662q0 -14 5 -25t14 -20t20 -14t25 -5t25 5t20 14t14 20t5 25t-5 25t-14 20t-20 14t-25 5t-25 -5t-20 -14t-14 -20t-5 -25z " />
<glyph unicode="&#xe1d;" horiz-adv-x="869" d="M122 198v469q0 22 6.5 42.5t20.5 36.5t36.5 25.5t54.5 9.5q24 0 46 -9.5t38 -25.5t25 -37t9 -46q0 -24 -9 -45.5t-24.5 -37t-37 -25t-45.5 -9.5q-11 0 -24.5 4t-27.5 12v-18v-14.5v-11.5v-297q0 -68 25 -105.5t72 -49.5l145 204l152 -202q20 2 37 10t30 26t20.5 47 t7.5 72l-1 899l69 12v-905q0 -54 -10.5 -95t-32.5 -70t-57 -47t-84 -27l-129 174l-128 -175q-42 6 -75.5 23.5t-57.5 45t-37.5 63t-13.5 77.5zM176 662q0 -14 5 -25t14 -20t20 -14t25 -5t25 5t20 14t14 20t5 25t-5 25t-14 20t-20 14t-25 5t-25 -5t-20 -14t-14 -20t-5 -25z " />
<glyph unicode="&#xe1e;" horiz-adv-x="960" d="M30 662q0 24 9 46t25 38t38 25t46 9q32 0 54.5 -10t36 -26t19.5 -36t6 -42v-410v-23t-0.5 -27.5t-1 -30t-1.5 -30.5q-1 -35 -3 -73h2q10 38 19 73q4 15 8.5 30.5t8.5 30t8 27t6 21.5l169 490l68 29l179 -519q2 -7 5.5 -18.5t8 -25.5t8.5 -30l8 -32q10 -36 22 -78h2 q-2 40 -4 78q-1 16 -1.5 31.5t-1.5 30t-1 26.5v20v505l66 14v-775h-90l-168 492q-6 18 -13 38.5t-13.5 41.5t-13 41t-11 36t-7.5 27q-4 10 -4 14q0 -4 -3 -14.5t-8 -26.5t-11 -36t-13 -41t-14 -41.5t-13 -38.5l-168 -492h-90v518v11v15t1 18q-14 -8 -28 -12t-25 -4 q-24 0 -45 9t-37 25t-25 37t-9 45zM84 661q0 -14 5 -25.5t14 -20t21 -13.5q10 -5 24 -5t25.5 5t20 13.5t13.5 20.5t5 25q0 14 -5 25.5t-13.5 20t-20 13.5t-25.5 5t-25 -5t-20 -13.5t-14 -20t-5 -25.5z" />
<glyph unicode="&#xe1f;" horiz-adv-x="960" d="M30 662q0 24 9 46t25 38t38 25t46 9q32 0 54.5 -10t36 -26t19.5 -36t6 -42v-410v-23t-0.5 -27.5t-1 -30t-1.5 -30.5q-1 -35 -3 -73h2q10 38 19 73q4 15 8.5 30.5t8.5 30t8 27t6 21.5l169 490l68 29l179 -519q2 -7 5.5 -18.5t8 -25.5t8.5 -30l8 -32q10 -36 22 -78h2 q-2 40 -4 78q-1 16 -1.5 31.5t-1.5 30t-1 26.5v20v870l66 14v-1140h-90l-168 492q-6 18 -13 38.5t-13.5 41.5t-13 41t-11 36t-7.5 27q-4 10 -4 14q0 -4 -3 -14.5t-8 -26.5t-11 -36t-13 -41t-14 -41.5t-13 -38.5l-168 -492h-90v518v11v15t1 18q-14 -8 -28 -12t-25 -4 q-24 0 -45 9t-37 25t-25 37t-9 45zM84 661q0 -14 5 -25.5t14 -20t21 -13.5q10 -5 24 -5t25.5 5t20 13.5t13.5 20.5t5 25q0 14 -5 25.5t-13.5 20t-20 13.5t-25.5 5t-25 -5t-20 -13.5t-14 -20t-5 -25.5z" />
<glyph unicode="&#xe20;" horiz-adv-x="858" d="M39 107q0 26 9 47.5t24.5 36.5t35.5 24t44 9q14 0 30 -4t31 -12q-1 10 -1 18v14.5v11.5v216q0 26 -7 46t-18 35.5t-24 28t-25 22.5l-56 46q50 40 99 66t97 41t96 21t96 6q47 0 86.5 -8.5t71 -24.5t54 -38.5t34.5 -50.5q6 -14 10 -33t6 -38t3 -36t1 -29v-522h-68v484 q0 66 -9 110.5t-33 72t-65 39t-104 11.5q-34 0 -70.5 -5t-71.5 -14.5t-68 -24.5t-59 -34q15 -11 31.5 -25t29.5 -32t22 -39t9 -45v-376q0 -28 -7 -52t-22 -42t-38 -28.5t-56 -10.5q-25 0 -46.5 9.5t-37 25.5t-25 37t-9.5 46zM94 108q0 -14 5 -25t13.5 -20t20 -14t25.5 -5 t25 5t20 14t14 20t5 25t-5 25t-14 20t-21 14q-10 5 -24 5t-25.5 -5t-20 -14t-13.5 -20t-5 -25z" />
<glyph unicode="&#xe21;" horiz-adv-x="895" d="M63 123q0 28 10.5 52.5t28.5 42.5t42.5 28t52.5 10q18 0 46 -6v268v12q1 7 1 14v18q-14 -8 -28 -12t-25 -4q-24 0 -45.5 9t-37 25t-24.5 37t-9 45t9.5 46t25.5 38t37 25t47 9q32 0 54 -9.5t36 -25.5t20 -36.5t6 -42.5v-457q29 -36 61.5 -64.5t64.5 -48.5t64 -30t60 -10 q42 0 70 11t45 34t23.5 58t6.5 83v517l67 14v-595q0 -38 -11 -71.5t-35 -60t-60 -41.5t-86 -15q-28 0 -56 5t-59 18t-65 36t-72 59q-4 -28 -17 -50.5t-30.5 -38t-39 -23t-44.5 -7.5q-28 0 -52.5 10.5t-42.5 28.5t-28.5 42.5t-10.5 52.5zM118 124q0 -16 6.5 -31t17 -25.5 t24.5 -17t31 -6.5q16 0 30.5 6.5t25 17t17.5 24.5q6 16 6 32t-6.5 30t-17 25t-25 17t-30.5 6t-30.5 -6t-25 -17t-17 -25t-6.5 -30zM130 662q0 -14 5 -25.5t13.5 -20t20 -13.5t25.5 -5t25 5t20 13.5t14 20t5 25.5t-5 25t-14 20t-21 14q-10 5 -24 5t-25.5 -5t-20 -14 t-13.5 -20t-5 -25z" />
<glyph unicode="&#xe22;" horiz-adv-x="801" d="M86 213q0 31 6.5 56.5t21 47t36.5 39.5t54 36q-30 14 -52 35t-36 47t-21 53t-7 51q0 47 13 85t35.5 64.5t53 41t66.5 14.5q26 0 48 -9.5t38 -25.5t25 -37t9 -46q0 -24 -8.5 -45.5t-23.5 -37t-35.5 -25t-45.5 -9.5q-16 0 -31.5 3.5t-30.5 12t-27 22t-20 35.5 q-2 -18 -1 -32.5t1 -26.5q3 -33 18.5 -59.5t38.5 -45.5t52.5 -29t60.5 -10h17.5t18.5 1l-10 -61h-30q-36 -2 -66 -12t-52 -27t-34 -41q-13 -26 -13 -56t13 -58q12 -26 34 -48q32 -31 81 -47.5t110 -16.5q24 0 49 2.5t48.5 9t44.5 18.5t37 28q19 20 29 48q10 26 10 62v540 l67 12v-558q0 -50 -18 -92t-55.5 -71t-95.5 -45t-138 -16q-58 0 -110 16t-91 45t-61.5 70.5t-22.5 91.5zM194 664q0 -13 5 -24.5t13.5 -20t20 -13.5t25.5 -5q13 0 24.5 5t20 13.5t13.5 20t5 24.5q0 14 -5 25.5t-13.5 20t-20.5 13.5t-24 5q-14 0 -25.5 -5t-20 -13.5 t-13.5 -20t-5 -25.5z" />
<glyph unicode="&#xe23;" horiz-adv-x="660" d="M28 545q0 12 1 26t4 31q8 47 32 81t59.5 55.5t80.5 31.5t95 10q78 0 153 -21.5t145 -59.5l-26 -53q-32 15 -64 27.5t-65 22t-69 14.5q-34 6 -74 6q-34 0 -64.5 -3.5t-55 -14.5t-43.5 -30.5t-29 -49.5q-4 -10 -5 -26.5t-1 -34.5l288 -38q38 -5 64 -12t43 -25t24.5 -49 t7.5 -83v-227q0 -28 -6.5 -52.5t-21.5 -42.5t-38 -28t-57 -10q-25 0 -46.5 9t-37 25t-24.5 38q-10 22 -10 46q0 26 9 47t24.5 36.5t36 24t43.5 8.5q14 0 30.5 -4t30.5 -12v18v14.5v11.5v103q0 17 -2 34t-10 32t-25 26.5t-49 15.5l-346 43q0 8 -1 18.5t-1 20.5zM343 108 q0 -14 5 -25t13.5 -20t20.5 -14t25 -5q14 0 25.5 5t20 14t13.5 21q5 10 5 24t-5 25.5t-13.5 20t-20.5 13.5t-25 5q-14 0 -25.5 -5t-20 -13.5t-13.5 -20t-5 -25.5z" />
<glyph unicode="&#xe24;" horiz-adv-x="857" d="M88 652q44 30 90 54t94 40.5t96 25t94 8.5q50 0 92 -6t74 -20t55 -37t37 -57q4 -12 7 -29t4.5 -37t2.5 -40t1 -37v-809l-67 -15v805q0 42 -3 74t-11.5 56.5t-23.5 41t-39.5 27.5t-59.5 15.5t-83 4.5q-40 0 -80 -8t-76 -20.5t-65.5 -26.5t-48.5 -26l22 -32q4 -6 10 -14 t11.5 -19.5t9 -26t3.5 -33.5v-259v-11.5v-14.5v-18q14 8 31 12t31 4q23 0 43 -8.5t35.5 -24t24.5 -36.5t9 -47q0 -24 -9 -46t-25 -38t-38 -25t-46 -9q-33 0 -56.5 10t-38 28t-21 42.5t-6.5 52.5l-1 354q0 39 -8 62.5t-21 41.5zM226 108q0 -14 5 -25t13.5 -20t20 -14t25.5 -5 t25 5t20 14t14 20t5 25t-5 25.5t-14 20t-21 13.5q-10 5 -24 5t-25.5 -5t-20 -13.5t-13.5 -20t-5 -25.5z" />
<glyph unicode="&#xe25;" horiz-adv-x="813" d="M94 686q35 21 78 38.5t88.5 29.5t90.5 19t86 7q50 0 89.5 -7t68.5 -21t48.5 -34t30.5 -47q12 -28 14 -59.5t2 -60.5v-551h-67l-1 434l-49.5 5.5t-44.5 3.5t-45 2t-49 1q-43 0 -79 -7t-64.5 -20t-50.5 -31q-21 -18 -35 -38q-12 -18 -21.5 -37t-14 -39.5t-5 -43.5t3.5 -50 q10 14 22.5 23t24.5 13t22.5 6t16.5 2q23 0 43.5 -9t36 -24t24.5 -36.5t9 -47.5q0 -24 -9.5 -45.5t-25 -37.5t-37 -25.5t-46.5 -9.5q-17 0 -33 3t-30.5 10.5t-28 20.5t-25.5 35q-10 16 -18 40t-12 52.5t-4 60t5 62.5t16 60t31 53q24 30 52 52t61 36t71 22t80 10q25 2 52.5 1 t54.5 -3t53 -5t48 -5v44q0 32 -2 57t-9 45t-20.5 34t-36 23.5t-56.5 14.5q-34 4 -80 4q-36 0 -76 -8t-79.5 -21t-74.5 -29q-36 -16 -60 -30zM184 108q0 -14 5 -25t14 -20t21 -14q10 -5 24 -5t25.5 5t20 14t13.5 20t5 25t-5 25t-13.5 20t-20 14t-25.5 5t-25 -5t-20 -14 t-14 -20t-5 -25z" />
<glyph unicode="&#xe26;" horiz-adv-x="858" d="M39 108q0 26 9 47t24.5 36.5t35.5 24t44 8.5q14 0 30 -4t31 -12q-1 10 -1 18v14.5v11.5v216q0 26 -7 46t-18 36t-24 28t-25 22l-56 46q50 40 99 66t97 41t96 21t96 6q94 0 156 -32t87 -88q6 -14 10.5 -33t7.5 -38.5t4 -37t1 -28.5v-818l-68 -13v791q0 28 -1 50.5t-4 41.5 t-8 35t-13 30q-22 38 -67 57.5t-118 19.5q-34 0 -70.5 -5.5t-71.5 -15.5t-68 -25t-59 -33q15 -11 31.5 -25.5t29.5 -32.5t22 -39t9 -45v-373q0 -28 -7 -52.5t-22 -42.5t-38 -28t-56 -10q-25 0 -46.5 9t-37 25t-25.5 38q-9 22 -9 46zM94 108q0 -14 5 -25t13.5 -20t20 -14 t25.5 -5t25 5t20 14t14 21q5 10 5 24t-5 25.5t-14 20t-21 13.5q-10 5 -24 5t-25.5 -5t-20 -13.5t-13.5 -20t-5 -25.5z" />
<glyph unicode="&#xe27;" horiz-adv-x="688" d="M32 688q24 16 57 32.5t71 30t79 21.5t81 8q44 0 81 -7t66.5 -20t50.5 -33.5t32 -47.5q12 -28 14 -70t2 -94v-385q0 -28 -7 -52.5t-21.5 -42.5t-38 -28t-55.5 -10q-25 0 -46.5 9t-37.5 25t-25 38t-9 46q0 26 9 47t24 36.5t35.5 24t43.5 8.5q14 0 30 -4q18 -4 32 -12 q0 10 -1 18q0 7 -0.5 14.5t-0.5 11.5v286q0 45 -7 78.5t-28 56t-59 33.5q-36 12 -98 12q-30 0 -64 -7.5t-66 -19t-60.5 -26.5t-48.5 -29zM380 108q0 -14 5 -25t14 -20t20 -14t25 -5t25 5t20 14t14 21q5 10 5 24t-5 25.5t-14 20t-20 13.5t-25 5t-25 -5t-20 -13.5t-14 -20 t-5 -25.5z" />
<glyph unicode="&#xe28;" horiz-adv-x="858" d="M122 0v574q0 39 23.5 76t65.5 66t100.5 46.5t129.5 17.5q29 0 57 -3t54 -11q44 3 92 22.5t93 59.5q11 10 18.5 17.5t15.5 16.5l52 -50q-7 -8 -15 -15q-6 -7 -16 -15q-30 -26 -68 -45t-76 -31q40 -26 64 -64t24 -88v-574h-68v534q0 44 -17 78t-49 57t-78 35t-105 12 q-23 0 -49 -4t-51 -13t-49 -22.5t-41.5 -32t-28 -41.5t-10.5 -51v-185q36 44 67 71.5t57.5 43.5t49 21t42.5 5q22 0 42 -8t34 -23t23 -34t9 -42q0 -22 -9 -41.5t-23 -34.5t-34 -23t-42 -8q-34 0 -61 19t-38 49q-4 9 -5.5 17.5t-0.5 20.5q-20 -16 -38.5 -33.5t-32.5 -36 t-25 -38.5q-11 -18 -15 -38v-254h-68zM352 400q0 -12 4 -21.5t11.5 -17t17.5 -11.5q9 -5 21 -5t22 4.5t17.5 12t12.5 17.5q4 9 4 21q0 11 -4.5 21.5t-12 17.5t-17.5 12t-22 5t-21.5 -5t-17 -12t-11.5 -17.5t-4 -21.5z" />
<glyph unicode="&#xe29;" horiz-adv-x="916" d="M30 663q0 24 9 45.5t25 37.5t38 25.5t46 9.5q32 0 54.5 -9.5t36.5 -25.5t20.5 -37t6.5 -42v-435q0 -40 14 -73t42.5 -57t70 -37t95.5 -13q22 0 47 4t47.5 12.5t43 21.5t35.5 31t24 41.5t9 51.5v180q-44 -12 -86 -16q-40 -4 -78 -4q-28 0 -54 7t-46 22t-32.5 39t-12.5 56 q0 24 9 45t24.5 36t35.5 24t44 9t45 -9t36 -24t24 -36t9 -45q0 -15 -7 -32.5t-19 -29.5q27 2 55 7q27 5 53 13v303l68 14v-292q26 12 50 27q24 14 46 32l36 -52q-22 -18 -54 -36t-78 -36v-215q0 -39 -19.5 -77t-57 -68t-92.5 -48.5t-126 -18.5q-56 0 -103.5 15.5t-83.5 44 t-58 67.5q-21 40 -24 86v316v12v14q0 8 1 18q-14 -8 -28 -12t-25 -4q-24 0 -45 9.5t-37 25t-25 37t-9 45.5zM84 662q0 -14 5 -25t14 -20t21 -14q10 -5 24 -5t25.5 5t20 14t13.5 20t5 25t-5 25t-13.5 20t-20 14t-25.5 5t-25 -5t-20 -14t-14 -20t-5 -25zM438 500q0 -12 5 -23 t13 -19.5t19 -13t23 -4.5t23 4.5t19.5 13t13.5 18.5q4 12 4 24t-4.5 23t-13 19t-18.5 13q-12 5 -24 5t-23 -5t-19 -13t-13 -19t-5 -23z" />
<glyph unicode="&#xe2a;" horiz-adv-x="813" d="M94 686q35 21 78 38.5t88.5 29.5t90.5 19t86 7q71 0 119 -14q42 4 87 22t86 52q14 12 25 22q12 12 19 20l51 -50l-20 -20q-10 -8 -22 -18q-32 -24 -70 -42t-74 -28q22 -22 36 -53q12 -28 14 -59.5t2 -60.5v-551h-67l-1 434l-49.5 5.5t-44.5 3.5t-45 2t-49 1q-43 0 -79 -7 t-64.5 -20t-50.5 -31q-21 -18 -35 -38q-12 -18 -21.5 -37t-14 -39.5t-5 -43.5t3.5 -50q10 14 22.5 23t24.5 13t22.5 6t16.5 2q23 0 43.5 -9t36 -24t24.5 -36.5t9 -47.5q0 -24 -9.5 -45.5t-25 -37.5t-37 -25.5t-46.5 -9.5q-17 0 -33 3t-30.5 10.5t-28 20.5t-25.5 35 q-10 16 -18 40t-12 52.5t-4 60t5 62.5t16 60t31 53q24 30 52 52t61 36t71 22t80 10q25 2 52.5 1t54.5 -3t53 -5t48 -5v44q0 32 -2 57t-9 45t-20.5 34t-36 23.5t-56.5 14.5q-34 4 -80 4q-36 0 -76 -8t-79.5 -21t-74.5 -29q-36 -16 -60 -30zM184 108q0 -14 5 -25t14 -20 t21 -14q10 -5 24 -5t25.5 5t20 14t13.5 20t5 25t-5 25t-13.5 20t-20 14t-25.5 5t-25 -5t-20 -14t-14 -20t-5 -25z" />
<glyph unicode="&#xe2b;" horiz-adv-x="877" d="M20 662q0 24 9 46t25 38t38 25t46 9q32 0 54.5 -9.5t36.5 -25.5t20.5 -36.5t6.5 -42.5v-406q34 52 66 97t69 87q39 46 80 81t85 51q-18 12 -26 33.5t-8 45.5q0 26 10 48.5t27 39.5t39.5 27t48.5 10t48.5 -10t39.5 -27t27 -39.5t10 -48.5q0 -18 -5 -34.5t-13.5 -30.5 t-21 -26t-26.5 -20q17 -11 26.5 -31.5t14.5 -45.5t6 -49.5t1 -42.5v-375h-67v390q0 20 -1.5 43.5t-8 44.5t-21 35.5t-40.5 14.5q-36 0 -80 -32t-96 -92q-42 -50 -88 -116.5t-96 -148.5v-139h-68v531v9.5v9.5q0 6 1 12q-14 -8 -28 -12t-25 -4q-24 0 -45 9t-37 25t-25 37 t-9 45zM74 662q0 -14 5 -25.5t14 -20t21 -13.5q10 -5 24 -5t25.5 5t20 13.5t13.5 20t5 25.5t-5 25t-13.5 20t-20 14t-25.5 5t-25 -5t-20 -14t-14 -20t-5 -25zM577 658q0 -14 5.5 -27t15 -22.5t22 -15t27.5 -5.5q14 0 27 5.5t22.5 15t15 22.5t5.5 27t-5.5 27t-15 22.5t-22 15 t-27.5 5.5q-14 0 -27 -5.5t-22.5 -15t-15 -22.5t-5.5 -27z" />
<glyph unicode="&#xe2c;" horiz-adv-x="933" d="M30 663q0 24 9 45.5t25 37.5t38 25.5t46 9.5q32 0 54.5 -9.5t36.5 -25.5t20.5 -37t6.5 -42v-428q0 -16 -1 -37.5t-1 -42.5q0 -23 -1 -49q6 16 15.5 37.5t19.5 43t18 38.5t12 24l148 311l51 20l157 -331q4 -7 12 -24t18.5 -38.5t20 -43t15.5 -37.5q-1 26 -2 49 q0 20 -0.5 42.5t-0.5 37.5v289q0 41 -5.5 74.5t-23.5 57t-53 36.5t-93 14q-10 0 -21.5 -1t-23.5 -3.5t-23.5 -5t-20.5 -5.5l-19 61q32 10 73 13t81 3q23 0 47.5 2.5t49.5 8.5t51 16.5t52 26.5q24 16 46 36l45 -49q-13 -13 -36 -29q-26 -18 -62.5 -32t-86.5 -20 q32 -13 49.5 -35.5t27 -47.5t11.5 -50t2 -43v-556h-71l-183 380q-8 17 -17 37.5t-17 39.5t-14 32t-6 14q0 -2 -6 -14.5t-13.5 -31.5t-17 -40t-17.5 -37l-182 -380h-72v518v12v14q0 8 1 18q-14 -8 -28 -12t-25 -4q-24 0 -45 9.5t-37 25t-25 37t-9 45.5zM84 662q0 -14 5 -25 t14 -20t21 -14q10 -5 24 -5t25.5 5t20 14t13.5 20t5 25t-5 25t-13.5 20t-20 14t-25.5 5t-25 -5t-20 -14t-14 -20t-5 -25z" />
<glyph unicode="&#xe2d;" horiz-adv-x="795" d="M78 686q35 21 77.5 38.5t87.5 29.5t91 19t86 7q100 0 157.5 -27.5t79.5 -81.5q12 -28 13.5 -59.5t1.5 -60.5v-350q0 -39 -20 -77t-58 -68t-94 -48.5t-126 -18.5q-56 0 -104.5 16t-84.5 45.5t-56.5 71.5t-20.5 94v150q0 32 9 58t25.5 44t40 27.5t51.5 9.5q26 0 47 -9.5 t36 -25.5t24 -37t9 -46q0 -26 -9.5 -47.5t-25 -37t-35.5 -24t-40 -8.5q-18 0 -37 6t-29 18q0 -12 1 -22q0 -8 0.5 -17t0.5 -13v-10q0 -40 14 -73t42 -56t69 -36t95 -13q20 0 43 4t46.5 12t45 21t38 31t26.5 41t10 51v324q0 44 -5.5 76t-23.5 54q-22 26 -64 37.5t-110 11.5 q-36 0 -76.5 -8t-80 -20.5t-74.5 -27.5t-59 -30zM167 386q0 -14 5 -25t13.5 -20t20.5 -14t25 -5q14 0 25.5 5t20 14t13.5 20t5 25t-5 25t-13.5 20t-20.5 14t-25 5q-14 0 -25.5 -5t-20 -14t-13.5 -20t-5 -25z" />
<glyph unicode="&#xe2e;" horiz-adv-x="795" d="M78 686q35 21 77.5 38.5t87.5 29.5t91 19t86 7q14 0 27 -0.5t25 -1.5q39 6 80 24q40 20 82 56q10 8 18 16q8 10 16 18l52 -49q-8 -8 -16 -17q-8 -8 -18 -16q-24 -20 -52 -36t-51 -24q27 -14 45 -34t29 -45q12 -28 13.5 -59.5t1.5 -60.5v-350q0 -39 -20 -77t-58 -68 t-94 -48.5t-126 -18.5q-56 0 -104.5 16t-84.5 45.5t-56.5 71.5t-20.5 94v150q0 32 9 58t25.5 44t40 27.5t51.5 9.5q26 0 47 -9.5t36 -25.5t24 -37t9 -46q0 -26 -9.5 -47.5t-25 -37t-35.5 -24t-40 -8.5q-18 0 -37 6t-29 18q0 -12 1 -22q0 -8 0.5 -17t0.5 -13v-10 q0 -40 14 -73t42 -56t69 -36t95 -13q20 0 43 4t46.5 12t45 21t38 31t26.5 41t10 51v324q0 44 -5.5 76t-23.5 54q-22 26 -64 37.5t-110 11.5q-36 0 -76.5 -8t-80 -20.5t-74.5 -27.5t-59 -30zM167 386q0 -14 5 -25t13.5 -20t20.5 -14t25 -5q14 0 25.5 5t20 14t13.5 20t5 25 t-5 25t-13.5 20t-20.5 14t-25 5q-14 0 -25.5 -5t-20 -14t-13.5 -20t-5 -25z" />
<glyph unicode="&#xe2f;" horiz-adv-x="778" d="M56 583q0 42 12 78t33.5 62.5t52 41.5t66.5 15q26 0 48 -9t37.5 -25t24.5 -38t9 -46t-8.5 -45t-23.5 -37t-36 -25t-45 -9q-18 0 -34.5 4t-31 13t-25.5 22.5t-17 33.5q-1 -10 -1 -18.5v-16.5q0 -42 16.5 -78.5t44.5 -63t66 -41.5t80 -15q44 0 85 14t75.5 38t61 57t42.5 70 v196l68 13v-774h-68v468q-16 -26 -43 -51.5t-63 -46.5t-78 -34t-89 -13q-56 0 -103.5 18.5t-82.5 52.5t-54 82t-19 107zM156 662q0 -13 5 -25t14 -20.5t21 -13.5q10 -5 24 -5q13 0 24.5 5t20.5 13.5t14 20.5t5 25q0 14 -5 25t-14 20t-20 14t-25 5t-25 -5t-20 -14t-14 -21 q-5 -10 -5 -24z" />
<glyph unicode="&#xe30;" horiz-adv-x="517" d="M42 208q0 22 8.5 41t23 34t33.5 23t41 8t41.5 -8t34 -23t22.5 -34t8 -41q0 -9 -2 -19.5t-7.5 -20.5t-13.5 -19t-19 -15q14 0 28.5 1t28 3t25.5 5t20 6q26 10 56 32.5t58 62.5l58 -40q-38 -44 -76 -71t-80 -40q-38 -12 -76 -15q-38 -4 -78 0q-26 4 -50 13t-44 27 q-40 36 -40 90zM42 626q0 22 8.5 41t23 33.5t33.5 23t41 8.5t41.5 -8.5t34 -23t22.5 -33.5t8 -41q0 -9 -2 -19.5t-7.5 -21t-13.5 -19t-19 -14.5q14 0 28.5 1t28 3t25.5 5l20 5q26 10 56 33t58 62l58 -39q-38 -44 -76 -71t-80 -41q-38 -12 -76 -16q-38 -3 -78 2q-26 4 -50 13 t-44 26q-40 37 -40 91zM94 208q0 -12 4 -22t11.5 -17t17.5 -11q9 -5 21 -5q11 0 21.5 4.5t17.5 11.5t11.5 17t4.5 22q0 11 -4.5 21t-11.5 17.5t-17 11.5t-22 4t-21.5 -4t-17 -11.5t-11.5 -17.5t-4 -21zM94 626q0 -12 4 -22t11.5 -17.5t17.5 -12.5q9 -4 21 -4q11 0 21.5 4.5 t17.5 12t11.5 17.5t4.5 22q0 11 -4.5 20.5t-11.5 17.5t-17 12t-22 4t-21.5 -4t-17 -12t-11.5 -17.5t-4 -20.5z" />
<glyph unicode="&#xe31;" d="M-554 1042q0 24 9 44t23.5 34t35 22t43.5 8q20 0 37.5 -6.5t31.5 -18t23.5 -27.5t12.5 -36q2 -12 0 -25t-8 -26t-16 -24.5t-24 -18.5q8 -2 20 -2h20q98 0 176 31t144 95l52 -44q-39 -36 -83 -62.5t-91.5 -43.5t-97.5 -25t-100 -8q-22 0 -46 2.5t-47 8.5t-44 15.5 t-36.5 24t-25 35t-9.5 47.5zM-496 1035q2 -10 7 -19t13 -15t18 -9q10 -2 20 -1q11 2 19.5 6.5t14.5 12.5t9 18t1 20t-7 19t-13 15t-18 9t-20 1t-19 -7t-15 -12.5t-9 -17.5t-1 -20z" />
<glyph unicode="&#xe32;" horiz-adv-x="587" d="M31 694q50 40 112.5 63t132.5 24q42 0 77 -13.5t59.5 -37.5t38 -58t13.5 -74v-598h-67v534q0 40 -5.5 73.5t-21.5 58t-43 38.5t-71 14q-28 0 -56 -7.5t-54 -18t-48 -22.5t-39 -24z" />
<glyph unicode="&#xe33;" horiz-adv-x="587" d="M-276 1030q0 24 9 46t25 38t38 25t46 9t45.5 -9t37.5 -25t25.5 -38t9.5 -46t-9.5 -45.5t-25.5 -37.5t-37.5 -25.5t-45.5 -9.5t-46 9.5t-38 25.5t-25 37.5t-9 45.5zM-220 1030q0 -12 5 -23.5t13 -20t19 -13t25 -4.5q12 0 23 4.5t19.5 13t13 20t4.5 23.5t-4.5 23.5t-13 20 t-19.5 13t-23 4.5q-13 0 -24.5 -4.5t-19.5 -13t-13 -20t-5 -23.5zM31 694q50 40 112.5 63t132.5 24q40 0 75 -12.5t61 -36.5q24 -22 38 -56.5t14 -77.5v-598h-67v534q0 22 -0.5 41.5t-4 37t-10.5 33.5q-6 16 -16 30t-23 22t-27 12t-29 6t-31 2q-28 0 -56 -7.5t-54 -18 t-48 -22.5t-39 -24z" />
<glyph unicode="&#xe34;" d="M-746 960q85 49 170.5 73.5t167.5 24.5q41 0 84 -4.5t82 -18.5t70.5 -40.5t49.5 -70.5l-70 -14q-12 26 -33 42.5t-50 26.5t-67 14q-36 4 -84 4q-34 0 -72.5 -7.5t-77 -19.5t-74.5 -28q-34 -16 -64 -34z" />
<glyph unicode="&#xe35;" d="M-747 960q88 50 171.5 74t165.5 24q30 0 61 -5t60 -12.5t54.5 -19t44.5 -24.5v176l68 15v-264l-65 -14q-15 22 -38.5 38.5t-54 27t-68.5 15.5t-80 5q-38 0 -76 -7t-75 -19t-71 -28q-34 -14 -64 -32z" />
<glyph unicode="&#xe36;" d="M-747 964q36 18 71.5 33t71.5 26t74 17t80 5q23 0 48.5 -3.5t48.5 -8t43 -10t32 -10.5q-4 28 4 48t23.5 33.5t35 20t39.5 6.5q22 0 41 -8.5t33.5 -22.5t23 -33.5t8.5 -41.5t-8.5 -41.5t-23 -33.5t-33.5 -22.5t-41 -8.5q-19 0 -40 8.5t-48 22.5q-42 21 -90 32.5t-104 11.5 q-36 0 -68 -4.5t-63 -14t-61 -23.5t-64 -31zM-228 1015q0 -11 4 -20.5t11 -17t17 -11.5t20 -4q11 0 20.5 4t16.5 11.5t11 17t4 20.5q0 10 -4 19.5t-11 17t-17 11.5t-20 4t-20 -4t-17 -11.5t-11 -17t-4 -19.5z" />
<glyph unicode="&#xe37;" d="M-750 962q84 46 168 66t166 20q16 0 36 -2q18 -1 36 -3v126l64 13v-150q24 -6 48 -16t46 -25v178l64 13v-258l-64 -16q-36 43 -99 61t-147 18q-38 0 -75 -5.5t-73.5 -16t-70 -25t-63.5 -32.5z" />
<glyph unicode="&#xe38;" d="M-340 -185q0 22 9 41.5t23 34.5t34 23t42 8q36 0 62 -18t38 -48q2 -6 4 -13t3 -15l2 -16q1 -10 1 -16v-193l-64 -13v134q-6 -4 -14 -6t-17 -4t-18 -2t-15 1q-20 3 -36.5 11.5t-28 22t-18.5 30.5t-7 38zM-288 -185q0 -12 5 -21.5t12 -17.5t17 -12t22 -4t22 4t17 12t12 18 t5 21q0 12 -5 21.5t-12 17.5t-17 12t-22 4t-22 -4t-17 -12t-12 -17.5t-5 -21.5z" />
<glyph unicode="&#xe39;" d="M-525 -181q0 21 8 40t22.5 33t34.5 22t44 8q19 0 36.5 -7t31.5 -19t22 -30t8 -42l-2 -96q0 -16 1.5 -30t8.5 -25t20 -18t35 -7q12 0 24.5 4t22.5 11.5t16 18t6 22.5v204l64 14v-201q0 -12 -3 -25.5t-9 -27t-16.5 -26t-26.5 -22.5t-38.5 -16t-52.5 -6q-38 0 -60.5 12 t-34 29.5t-15.5 35.5t-4 30v6v7q1 4 1 9q-2 -1 -6.5 -3t-10.5 -3t-13 -2.5t-14 -1.5q-20 0 -38.5 8t-32 21.5t-21.5 32.5t-8 40zM-474 -181q0 -10 4 -19.5t11 -16.5t17 -11t20 -4t19 4t16 11t11 16t4 20q0 10 -4 19.5t-11 16.5t-16 11t-19 4t-20 -4t-17 -11t-11 -16.5 t-4 -19.5z" />
<glyph unicode="&#xe3a;" d="M-213 -138q0 12 4.5 22t12.5 17t18 12t22 5t22 -5t17.5 -12t12.5 -17q4 -10 4 -22t-4.5 -22t-12 -18t-17.5 -12q-10 -5 -22 -5t-22 4.5t-18 12.5t-12.5 18t-4.5 22z" />
<glyph unicode="&#xe3e;" />
<glyph unicode="&#xe3f;" horiz-adv-x="942" d="M150 0v978h275v134l71 16v-150q38 0 75 -4t70.5 -13t62 -26t49.5 -42.5t33 -61t12 -84.5q0 -32 -6 -66.5t-23 -65.5t-46 -57q-29 -24 -73 -40q56 -11 95 -34t62 -55.5t33 -73.5t10 -89q0 -71 -25 -121.5t-67 -82.5t-98 -47t-118 -15h-46v-152h-71v152h-275zM226 71h199 v403h-199v-403zM226 544h199v364h-199v-364zM496 71h54q59 0 101.5 14.5t69.5 41.5t39.5 65t12.5 84q0 54 -20.5 92t-56.5 61t-84 34t-102 11h-14v-403zM496 544h12q44 0 82 12t67.5 36t47 59t17.5 80q0 56 -19 90.5t-50 53.5t-69 26t-78 7h-10v-364z" />
<glyph unicode="&#xe40;" horiz-adv-x="411" d="M139 124v638l67 11v-512v-29q-1 -14 -2 -26q14 8 32 13t31 5q23 0 43 -8.5t36 -24t25 -36.5t9 -47q0 -24 -9.5 -46t-25 -38t-37.5 -25t-46 -9q-33 0 -56.5 10t-38.5 28.5t-21.5 43t-6.5 52.5zM197 108q0 -14 5 -25t13.5 -20t20.5 -14t25 -5q14 0 25.5 5t20 14t13.5 20 t5 25t-5 25.5t-13.5 20t-20.5 13.5t-25 5q-14 0 -25.5 -5t-20 -13.5t-13.5 -20t-5 -25.5z" />
<glyph unicode="&#xe41;" horiz-adv-x="754" d="M139 124v638l67 11v-513q0 -15 -0.5 -28.5t-1.5 -25.5q14 8 32 13t31 5q23 0 43 -9t36 -24t25 -36.5t9 -47.5q0 -24 -9.5 -45.5t-25 -37.5t-37.5 -25.5t-46 -9.5q-33 0 -56.5 10.5t-38.5 28.5t-21.5 43t-6.5 53zM197 108q0 -14 5 -25t13.5 -20t20.5 -14t25 -5 q14 0 25.5 5t20 14t13.5 20t5 25t-5 25t-13.5 20t-20.5 14t-25 5q-14 0 -25.5 -5t-20 -14t-13.5 -20t-5 -25zM482 124v638l68 11v-513q0 -15 -1 -28.5t-2 -25.5q14 8 31.5 13t31.5 5q23 0 43.5 -9t35.5 -24t24 -36.5t9 -47.5q0 -24 -9 -45.5t-25 -37.5t-38 -26 q-22 -9 -46 -9q-33 0 -56 10.5t-37.5 28.5t-21.5 43t-7 53zM540 108q0 -14 5 -25t14 -20t20 -14t25 -5t25 5t20 14t14 20t5 25t-5 25t-14 20t-20 14t-25 5t-25 -5t-20 -14t-14 -20t-5 -25z" />
<glyph unicode="&#xe42;" horiz-adv-x="451" d="M-37 1007q13 32 36.5 60t55 49.5t70.5 33.5t83 12q54 0 106 -14t100 -32l-27 -55q-29 10 -53 16.5t-45 11.5t-39 7t-36 2q-25 0 -48.5 -4t-44.5 -14t-39 -26q-18 -14 -32 -36q19 -15 39.5 -32.5t40.5 -38.5t40 -45t36 -52q7 -12 11.5 -28t8 -37.5t4.5 -50.5q2 -30 2 -68 v-406q0 -15 -1 -28.5t-1 -25.5q14 8 32 13q16 5 30 5q23 0 43.5 -9t36 -24t24.5 -36.5t9 -47.5q0 -24 -9.5 -45.5t-25 -37.5t-37 -25.5t-46.5 -9.5q-33 0 -56 10.5t-38 28.5t-22 43t-7 53v542v40t-2 44t-7 42q-5 22 -14 38q-16 28 -35 50.5t-41 43t-47.5 40.5t-54.5 43z M222 108q0 -14 5 -25t14 -20t21 -14q10 -5 24 -5t25.5 5t20 14t13.5 20t5 25t-5 25t-13.5 20t-20 14t-25.5 5t-25 -5t-20 -14t-14 -20t-5 -25z" />
<glyph unicode="&#xe43;" horiz-adv-x="449" d="M-52 982q0 34 15 66.5t44 57.5t69.5 40.5t91.5 15.5q41 0 74.5 -13t59.5 -35t43 -50.5t23 -60.5l-102 -158q-13 -20 -19.5 -38.5t-10 -35.5t-4 -34t-0.5 -37v-439q0 -15 -1 -29t-1 -26q14 8 32 13q16 5 30 5q23 0 43.5 -8.5t36 -24t24.5 -36.5t9 -47q0 -24 -9.5 -46 t-25 -38t-37 -25t-46.5 -9q-33 0 -56 10t-38 28.5t-22 43t-7 52.5v584q0 28 2 48t6 37t12 33t20 36q14 21 30 44.5t30 44.5q16 23 34 47q-2 8 -6.5 19t-12.5 22t-19.5 23t-27.5 21t-35.5 14.5t-43.5 5.5q-17 0 -41 -5.5t-50 -23.5q29 2 48.5 -5t32.5 -21t19 -31t6 -35 q0 -22 -9 -42t-24 -35t-35 -23.5t-42 -8.5t-42 8.5t-35 23.5t-24 35t-9 42zM4 982q0 -12 4 -21t11.5 -16.5t17 -12t21.5 -4.5q11 0 21 4.5t17.5 12t11.5 17.5q4 8 4 20q0 11 -4 21.5t-11.5 17.5t-17.5 11t-21 4q-12 0 -21.5 -4t-17 -11t-11.5 -17.5t-4 -21.5zM222 108 q0 -14 5 -25t14 -20t21 -14q10 -5 24 -5t25.5 5t20 14t13.5 20t5 25t-5 25.5t-13.5 20t-20 13.5t-25.5 5t-25 -5t-20 -13.5t-14 -20t-5 -25.5z" />
<glyph unicode="&#xe44;" horiz-adv-x="449" d="M-57 1104l35 54q26 -14 57 -34t63 -46q60 33 113 53.5t89 30.5l62 -58q-22 -33 -40 -67q-8 -14 -16 -30.5t-16 -32.5t-15 -32t-13 -32q-10 -33 -16 -60.5t-9 -52.5t-4 -49t-1 -48v-440q0 -15 -1 -28.5t-1 -25.5q14 8 32 13q16 5 30 5q23 0 43.5 -9t36 -24t24.5 -36.5 t9 -47.5q0 -24 -9.5 -45.5t-25 -37.5t-37 -25.5t-46.5 -9.5q-33 0 -56 10.5t-38 28.5t-22 43t-7 53v576q0 71 8 120.5t21 85.5q10 26 19.5 48t21 43.5t25 44.5t31.5 51q-24 -6 -49 -16t-50 -22.5t-49 -26.5t-44 -27q-14 12 -32.5 26t-39 27.5t-42.5 26.5t-41 23zM222 108 q0 -14 5 -25t14 -20t21 -14q10 -5 24 -5t25.5 5t20 14t13.5 20t5 25t-5 25t-13.5 20t-20 14t-25.5 5t-25 -5t-20 -14t-14 -20t-5 -25z" />
<glyph unicode="&#xe45;" horiz-adv-x="587" d="M31 693q50 40 112.5 63.5t132.5 23.5q40 0 75 -12t61 -36q24 -22 38 -57t14 -77v-892l-67 -14v841q0 22 -0.5 41.5t-4 37.5t-10 33t-16.5 30q-10 14 -23 22t-27 12.5t-29 6t-31 1.5q-28 0 -56 -7.5t-54 -17.5t-48 -22.5t-39 -23.5z" />
<glyph unicode="&#xe46;" horiz-adv-x="823" d="M94 500v61q0 40 12 75.5t36 63.5t61 48t87 27l122 -103l114 102q40 -8 72.5 -24t56 -41t37 -58t13.5 -74v-586q0 -47 -3 -91q-4 -44 -17 -74q-10 -22 -26.5 -42t-37.5 -38t-44 -33t-45 -27l-32 44q32 22 55 39t38.5 33.5t24 35t13.5 41.5t6 52t1 69v555q0 35 -7 60 t-19 42t-31 28t-43 19l-127 -110l-131 110q-22 1 -43.5 -9.5t-38.5 -28.5t-27.5 -43t-10.5 -53v-70q0 -20 4 -40t10.5 -36t16.5 -28t23 -16q-6 11 -8.5 23.5t-2.5 22.5q0 26 11 45t28 32t38 20q22 7 42 7q24 0 45 -9t36 -25t24 -37t9 -45q0 -31 -12.5 -53.5t-32 -37 t-43.5 -21t-46 -6.5q-47 0 -85.5 14t-65.5 40t-42 64t-15 86zM256 415q0 -14 5 -25.5t14 -20t20 -13.5t25 -5t25 5t20 13.5t14 20t5 25.5t-5 25.5t-14 20t-20 13.5t-25 5t-25 -5t-20 -13.5t-14 -20.5t-5 -25z" />
<glyph unicode="&#xe47;" d="M-632 1070q0 37 16 69t44.5 55t68 36t87.5 13h198q8 0 14.5 0.5t12 1.5t10.5 4.5t11 9.5l49 51l45 -44l-52 -56q-8 -8 -18.5 -13t-22 -8.5t-23 -5t-19.5 -1.5h-195q-31 0 -59.5 -5t-50.5 -16t-36 -31t-16 -48q-1 -14 2.5 -30t10.5 -31t19 -27t27 -18l147 110q24 18 49 28 t48 10t42 -8t33 -22t21 -34t7 -42t-8.5 -42t-23.5 -35t-35.5 -23.5t-42.5 -8.5q-20 0 -37 7t-31 19.5t-24 28.5q-12 17 -16 37l-127 -92q-20 2 -42.5 15.5t-40.5 34.5t-30 50t-12 61zM-328 1018q0 -12 5 -22t13 -17t18 -12t22 -5t23 5t19 12t12 17t4 22q0 11 -4 21t-12 17.5 t-19 12t-23 4.5t-22 -4.5t-18 -12t-13 -17.5t-5 -21z" />
<glyph unicode="&#xe48;" d="M-188 1262v214l66 12v-226h-66z" />
<glyph unicode="&#xe49;" d="M-430 1454q0 20 8 37t21 30t31 20t38 7q22 0 40 -7t31 -21t20 -32t6 -41q0 -14 -4 -31.5t-11.5 -34.5t-19.5 -33t-27 -29l8 1q44 5 83.5 20t72.5 35t58.5 42.5t39.5 44.5l45 -30q-4 -7 -14 -20t-27 -28.5t-40.5 -33.5t-54.5 -34t-70 -28.5t-86 -19.5q-33 -4 -61.5 -6.5 t-56.5 -2.5l-22 42q27 4 46.5 13.5t33.5 20t22 21t12 19.5q-6 -3 -12 -5.5t-16 -2.5q-17 -2 -33.5 4.5t-30.5 17.5t-22 28t-8 37zM-376 1452q0 -11 4 -19t10 -13.5t14 -8.5t16 -3q9 0 17.5 3t14.5 9t9 15t3 19q0 9 -3 17t-9 14t-14 9.5t-18 3.5q-8 0 -16 -3t-14 -9t-10 -15 t-4 -19z" />
<glyph unicode="&#xe4a;" d="M-574 1366q0 22 9 42.5t24 35t35 23.5t42 9q35 0 62.5 -18.5t39.5 -53.5l57 64q4 5 10.5 7.5t13 4.5t13 2h12.5q24 0 46 -9t34 -27q6 -10 9.5 -22t3.5 -26q0 -18 -8.5 -39t-26.5 -37q24 4 44 15t35 26t25.5 33t16.5 38l50 -20q-10 -29 -28.5 -56t-45.5 -47.5t-64 -33.5 t-84 -15l-31 38q11 8 21.5 18t18.5 20t13 22t5 24q0 17 -8 28.5t-26 13.5q-7 1 -11.5 -1.5t-5.5 -2.5l-111 -129q-15 -16 -36 -25q-22 -10 -44 -10q-20 0 -40 7t-35.5 20.5t-25 34t-9.5 46.5zM-523 1366q0 -12 4.5 -22.5t12.5 -19t18.5 -13t22.5 -4.5t22.5 4.5t18.5 13 t13 19t5 22.5t-5 22.5t-13 18.5t-18.5 12.5t-22.5 4.5t-22.5 -4.5t-18.5 -12.5t-12.5 -18.5t-4.5 -22.5z" />
<glyph unicode="&#xe4b;" d="M-310 1380v60h122v92l66 12v-104h122v-60h-122v-118h-66v118h-122z" />
<glyph unicode="&#xe4c;" d="M-319 1204q0 36 23 68q10 14 26.5 27t36.5 25t42 23t42.5 19.5t37.5 15t27 10.5l19 -50q-8 -2 -21.5 -7t-29.5 -12t-35 -16t-39 -21q30 -10 46 -31t16 -51q0 -20 -7 -37t-20 -30.5t-30 -21t-37 -7.5t-38 7t-31 20.5t-20.5 31t-7.5 37.5zM-266 1204q0 -18 13 -31.5 t31 -13.5t32 13.5t14 31.5t-14 32q-14 13 -32 13t-31 -13.5t-13 -31.5z" />
<glyph unicode="&#xe4d;" d="M-276 1030q0 24 9 46t25 38t38 25t46 9t45.5 -9t37.5 -25t25.5 -38t9.5 -46t-9.5 -45.5t-25.5 -37.5t-37.5 -25.5t-45.5 -9.5t-46 9.5t-38 25.5t-25 37.5t-9 45.5zM-220 1030q0 -12 5 -23.5t13 -20t19 -13t25 -4.5q12 0 23 4.5t19.5 13t13 20t4.5 23.5t-4.5 23.5t-13 20 t-19.5 13t-23 4.5q-13 0 -24.5 -4.5t-19.5 -13t-13 -20t-5 -23.5z" />
<glyph unicode="&#xe4e;" d="M-350 1008q0 18 7 37t20 35q8 8 19 17t26 17t33.5 15t39.5 11q-6 10 -9.5 21t-3.5 22q0 27 18 44q8 8 17.5 13.5t20 9.5t21.5 6.5t21 4.5l11 -47q-6 -1 -12.5 -2.5t-13.5 -4.5t-13 -7.5t-10 -11.5t-3 -17t4 -20.5t8 -21.5t11 -19q-10 -2 -21.5 -4t-22 -4t-19.5 -6t-15 -8 q17 -4 28.5 -13t19.5 -19t11.5 -22.5t3.5 -24.5q0 -20 -7.5 -38.5t-20.5 -31.5t-31 -21t-38 -8t-38.5 7.5t-32 21t-21.5 31.5t-8 38zM-296 1008q0 -10 4 -18t10 -14t14 -10t18 -4t18 4t15 10t11 14q3 8 3 18t-3.5 18t-10.5 15t-15 10.5t-18 3.5t-18 -3.5t-14 -10.5t-10 -15 t-4 -18z" />
<glyph unicode="&#xe4f;" horiz-adv-x="918" d="M66 384q0 54 14 104t40 93.5t61 79.5t78.5 61.5t93 39.5t103.5 14t104 -14t94 -39.5t80 -61.5t61.5 -79.5t39.5 -93.5t14 -104t-14 -104t-39.5 -93t-61.5 -79t-80 -62t-94 -40t-104 -14t-103.5 14t-93 40t-78.5 62t-61 79t-40 93t-14 104zM131 382q0 -68 25.5 -127 t69.5 -103t104 -70q58 -26 126 -26t127 26t103.5 70t70 103t25.5 127t-25.5 127t-70 103t-103.5 70t-127 26t-127 -26t-103 -70t-69.5 -103t-25.5 -127zM255 382q0 42 15.5 78.5t43.5 64t64 43.5t78 16t79 -16t64 -43.5t43 -64t16 -78.5t-16 -78.5t-43 -64t-64 -43.5 t-79 -16t-78 16t-64 43.5t-43.5 64t-15.5 78.5zM319 384q0 -28 10.5 -54t29.5 -44t44 -29t53 -11t54 11t44 29t29 44t11 54t-11 53t-29 44t-44 29q-26 11 -54 11t-53 -10.5t-44 -29.5t-29.5 -44t-10.5 -53z" />
<glyph unicode="&#xe50;" horiz-adv-x="951" d="M82 348q0 53 14.5 100.5t40.5 87t62 71t79.5 53.5t92.5 33.5t102 11.5q96 0 170.5 -26.5t124.5 -74.5t75 -115t25 -149q0 -88 -30.5 -154t-84 -111t-125 -67.5t-153.5 -22.5q-88 0 -160.5 26.5t-124 74.5t-80 115t-28.5 147zM151 356q0 -75 24 -132.5t66.5 -96.5 t99.5 -59.5t125 -20.5q40 0 81 7.5t78 22.5t69 39t56 56t38 73t14 91q0 79 -26 137.5t-70 96.5t-102 56t-122 18q-39 0 -78.5 -8.5t-76.5 -25.5t-69 -41.5t-56 -57t-37.5 -71.5t-13.5 -84z" />
<glyph unicode="&#xe51;" horiz-adv-x="970" d="M47 90l33 55q34 -22 75 -40.5t84.5 -31t86 -19.5t76.5 -7q94 0 170 19.5t129.5 57.5t82 94t28.5 129q0 54 -12 96.5t-35 75.5t-53.5 56t-66.5 38t-75.5 22t-80.5 7q-61 0 -117 -14t-98 -41t-67.5 -66t-25.5 -89q0 -26 7.5 -49.5t20.5 -42t31 -32.5t39 -20 q-14 14 -19.5 31t-5.5 34q0 24 9 43.5t24.5 33.5t36 21.5t42.5 7.5t42.5 -8.5t36 -23.5t24.5 -36t9 -45q0 -29 -11 -51.5t-31 -37.5t-45 -22.5t-53 -7.5q-51 0 -92.5 15.5t-71.5 43.5t-46 67t-16 84q0 34 12.5 67.5t35.5 63.5t56 55t75 43t91.5 28t105.5 10 q70 0 126.5 -13.5t100 -38t75.5 -57t52 -71t30 -81.5t10 -87q0 -94 -34 -164t-96 -116t-148 -69q-88 -23 -192 -23q-42 0 -88 6t-93.5 19t-94 33t-89.5 48zM303 346q0 -13 5 -24.5t13.5 -20t20.5 -13.5t24 -5t23.5 5t20 13.5t13.5 20t5 24.5q0 12 -5 24t-13.5 20t-20 13 t-23.5 5t-24 -5t-20.5 -13t-13.5 -20t-5 -24z" />
<glyph unicode="&#xe52;" horiz-adv-x="970" d="M38 909l71 19q5 -16 9 -33q4 -14 6 -28.5t2 -23.5v-517q0 -56 25.5 -105.5t74 -86.5t119.5 -58.5t163 -21.5q87 0 151.5 19.5t107.5 52.5t64 76t21 90v202q0 34 -14 60.5t-35.5 44.5t-49 28t-55.5 12l-113 -119l-117 118q-17 0 -40.5 -8t-44.5 -25t-36 -45t-16 -66v-88 v-14.5t0.5 -16.5t1.5 -14.5t4 -9.5q2 22 12 38.5t24.5 26.5t30.5 14t32 4q23 0 43.5 -8.5t35.5 -24t24 -35.5t9 -44q0 -23 -9 -43.5t-24 -35.5t-37.5 -24t-50.5 -9q-44 0 -74.5 18t-50.5 46t-29 62.5t-9 68.5v71q0 46 14 86t42 70t69.5 49.5t96.5 24.5l100 -106l94 107 q46 -4 89 -19.5t76.5 -41.5t53.5 -64t20 -90v-180q0 -80 -29 -140t-82.5 -100t-129.5 -60.5t-170 -20.5q-118 0 -203 26.5t-139.5 72.5t-80.5 109t-26 135v439q0 49 -6.5 83t-14.5 53zM373 323q0 -13 5 -24t13.5 -20t20.5 -14t24 -5t23.5 5t20 14t13.5 20t5 24q0 12 -5 23.5 t-13.5 20.5t-20 14t-23.5 5t-24 -5t-20.5 -14t-13.5 -20.5t-5 -23.5z" />
<glyph unicode="&#xe53;" horiz-adv-x="970" d="M89 266v103q0 70 14.5 127.5t44.5 100.5t77 70.5t113 37.5l146 -133l144 133q58 -7 105 -29t80 -56t51 -77t18 -91v-230q0 -36 -4.5 -69.5t-15.5 -63.5t-30 -55q-18 -26 -48 -46l-44 50q23 16 37.5 35t22.5 42t11 50t3 59v228q0 24 -7.5 47t-20.5 42.5t-30 36t-35.5 28.5 t-38.5 20q-18 8 -36 10l-162 -144l-160 144q-14 0 -31 -6t-36 -18t-37 -31t-32 -47.5t-23 -66.5q-9 -37 -9 -87v-116q0 -16 2 -38t8.5 -48t20.5 -53t38 -49q-5 16 -5 30q0 24 9 44.5t24 36t36 24.5t45 9t44 -9t36 -24.5t25 -36t9 -44.5t-9 -44.5t-25 -36t-36 -24.5t-44 -9 q-4 0 -12 -0.5t-12 0.5q-40 -2 -72 9.5t-56 32t-42 48.5t-29 59t-17 63q-5 32 -5 62zM272 106q0 -13 5 -24.5t14 -20t20 -13.5t24 -5q12 0 23.5 5t20.5 13.5t14 20t5 24.5q0 12 -5 24t-14 20t-20 13t-24 5q-12 0 -23.5 -5t-20.5 -13t-14 -20t-5 -24z" />
<glyph unicode="&#xe54;" horiz-adv-x="970" d="M74 296v82q0 72 25.5 130.5t72 100t112.5 64.5t146 23h352q45 0 77 6t52 12l21 -66q-16 -5 -32 -9q-13 -4 -27.5 -6.5t-22.5 -2.5h-440q-66 0 -116 -21t-84 -55t-51 -75t-17 -80v-97q0 -51 18 -94.5t53 -75.5t85 -50q50 -17 116 -17h146q-28 18 -52 44.5t-42 59.5 t-27.5 70t-9.5 76q0 27 9.5 49t26.5 38t38 24.5t45 8.5t44.5 -9t36 -24.5t24.5 -36.5t9 -44q0 -24 -9 -44.5t-24 -35.5t-35 -23.5t-44 -8.5q-13 0 -24 5q-10 6 -16 13q1 -2 1 -3.5t1 -2.5q11 -31 32.5 -59t48.5 -50t57 -34.5t58 -12.5h140l-17 -65h-437q-60 0 -106.5 13 t-82 35t-60.5 52t-40.5 63t-23 67t-7.5 66zM487 321q0 -13 5 -24t13.5 -20t20.5 -14t24 -5t23.5 5t20 14t13.5 20t5 24q0 12 -5 23.5t-13.5 20.5t-20 14t-23.5 5t-24 -5t-20.5 -14t-13.5 -20.5t-5 -23.5z" />
<glyph unicode="&#xe55;" horiz-adv-x="970" d="M74 296v82q0 72 25.5 130.5t72 100t112.5 64.5t146 23h19q-12 10 -19.5 28t-7.5 36q0 26 10 48.5t27 39.5t40 26.5t49 9.5t48.5 -9.5t39.5 -26.5t26.5 -39.5t9.5 -48.5q0 -18 -6 -34q-5 -16 -20 -30h136q45 0 77 6t52 12l21 -66q-16 -5 -32 -9q-13 -4 -27.5 -6.5 t-22.5 -2.5h-440q-66 0 -116 -21t-84 -55t-51 -75t-17 -80v-97q0 -51 18 -94.5t53 -75.5t85 -50q50 -17 116 -17h146q-28 18 -52 44.5t-42 59.5t-27.5 70t-9.5 76q0 27 9.5 49t26.5 38t38 24.5t45 8.5t44.5 -9t36 -24.5t24.5 -36.5t9 -44q0 -24 -9 -44.5t-24 -35.5 t-35 -23.5t-44 -8.5q-13 0 -24 5q-10 6 -16 13q1 -2 1 -3.5t1 -2.5q11 -31 32.5 -59t48.5 -50t57 -34.5t58 -12.5h140l-17 -65h-437q-60 0 -106.5 13t-82 35t-60.5 52t-40.5 63t-23 67t-7.5 66zM480 760q0 -14 5.5 -27t15 -22.5t21.5 -15t27 -5.5q14 0 27 5.5t22.5 15 t15 22.5t5.5 27t-5.5 27t-15 22.5t-22 15t-27.5 5.5q-14 0 -26.5 -5.5t-22 -15t-15 -22.5t-5.5 -27zM487 321q0 -13 5 -24t13.5 -20t20.5 -14t24 -5t23.5 5t20 14t13.5 20t5 24q0 12 -5 23.5t-13.5 20.5t-20 14t-23.5 5t-24 -5t-20.5 -14t-13.5 -20.5t-5 -23.5z" />
<glyph unicode="&#xe56;" horiz-adv-x="970" d="M44 906l64 21l104 -336q46 28 88 48.5t84 35.5t83.5 22t84.5 7q92 0 159 -29t110 -77.5t63 -111t20 -128.5q0 -76 -27 -143t-78 -117t-125 -79t-166 -29q-76 0 -136.5 21t-103.5 58t-66.5 85t-25.5 101q0 30 9 58.5t26 50t41.5 34t55.5 12.5q24 0 45 -9t36 -24t24 -36 t9 -45t-8.5 -44t-23.5 -35t-35.5 -24t-44.5 -9q-9 0 -18.5 1.5t-19.5 5t-19 9.5t-17 16q14 -37 34 -63.5t43 -45t49 -30t51 -17.5t49 -8t44 -2q43 0 84 10t77.5 28t67.5 44t53 59t35 72t13 83q0 66 -18 121t-53 94t-86 60.5t-117 21.5q-50 0 -101 -10.5t-100 -30t-98 -45.5 t-95 -56zM248 296q0 -13 5 -24t13.5 -19.5t20 -13.5t23.5 -5t24 5t20.5 13.5t13.5 20t5 23.5t-5 24t-13.5 20.5t-20.5 13.5t-24 5t-23.5 -5t-20 -13.5t-13.5 -20.5t-5 -24z" />
<glyph unicode="&#xe57;" horiz-adv-x="970" d="M39 332q0 68 11.5 130.5t39 112.5t73 84.5t111.5 48.5l114 -107l112 107q67 -14 112.5 -48.5t72.5 -84.5t39 -112.5t12 -130.5q0 -76 -18 -143t-61 -127q51 16 91 47.5t67 73.5t42 92q15 51 15 103v448v32t1 25t3 22t4 23l67 -14l-4 -36q-2 -16 -3 -36.5t-1 -40.5v-450 q0 -62 -21.5 -118.5t-60.5 -104.5t-94 -83t-124 -55l-63 56q42 52 66 123.5t26 165.5q0 70 -11 122.5t-31 90.5t-49 60t-64 30l-125 -118l-126 118q-36 -8 -64 -30t-48 -60t-31 -91t-11 -122q0 -12 1 -30.5t4 -39.5t8 -44.5t12.5 -45.5t17.5 -42q9 -21 23 -35 q4 -4 9.5 -10.5t10.5 -12.5q-4 10 -6 17t-2 14q0 24 9 44.5t25 36t36 24.5t44 9t45 -9t36 -24.5t24 -36t9 -44.5q0 -22 -7 -41t-21 -34q-20 -22 -44 -30.5t-51 -8.5q-39 0 -70 10t-55 26q-34 24 -59 60t-40 77t-21.5 85t-6.5 82zM240 106q0 -13 5 -24.5t13.5 -20t20 -13.5 t23.5 -5t24 5t20.5 13.5t13.5 20t5 24.5q0 12 -5 24t-13.5 20t-20.5 13t-24 5t-23.5 -5t-20 -13t-13.5 -20t-5 -24z" />
<glyph unicode="&#xe58;" horiz-adv-x="970" d="M86 277v113q0 74 27.5 131t77 96t117.5 59t150 20h347q43 0 75 5t54 12l20 -65q-18 -6 -37 -9q-16 -4 -33.5 -6.5t-31.5 -2.5h-416q-66 0 -118.5 -17t-89 -47.5t-55.5 -74t-19 -97.5v-147q0 -22 7.5 -43.5t21 -42t30.5 -38t36 -30.5t39 -20t39 -8l151 111l142 -112 q26 0 55 9.5t55.5 28t47 45.5t28.5 62q1 2 3.5 12.5t2.5 22.5q-4 -6 -11 -13t-16 -13t-21 -9.5t-24 -3.5q-24 0 -44.5 8.5t-35.5 23.5t-23.5 36t-8.5 44q0 24 8.5 44.5t24 36t36.5 24.5t44 9q28 0 53 -12q26 -12 44 -40q16 -24 23.5 -58.5t4.5 -80.5q-3 -52 -22.5 -96 t-52.5 -76.5t-79 -52t-102 -21.5l-132 105l-142 -104q-56 8 -101.5 31.5t-78.5 60.5t-51.5 85.5t-18.5 104.5zM677 317q0 -13 5 -24t13.5 -20t20 -14t24.5 -5q12 0 23.5 5t20 14t13.5 20t5 24q0 12 -5 23.5t-13.5 20.5t-20 14t-23.5 5q-13 0 -24.5 -5t-20 -14t-13.5 -20 t-5 -24z" />
<glyph unicode="&#xe59;" horiz-adv-x="971" d="M84 334q0 86 18.5 154.5t54 116.5t87 73.5t117.5 25.5q27 0 56.5 -5t59 -20t57.5 -42q26 -27 50 -68q4 41 17.5 66t31.5 38.5t38.5 18t38.5 4.5h72q44 0 76.5 6t53.5 13l18 -65q-16 -4 -30 -8q-13 -3 -26.5 -5.5t-22.5 -2.5h-111q-28 0 -48 -8t-33 -25t-20 -45t-7 -69 l222 -459l-56 -30l-256 518q-14 30 -35 53t-45 39.5t-52 25t-58 8.5q-34 0 -69.5 -17t-64.5 -53t-47.5 -93.5t-18.5 -137.5q0 -23 3 -56.5t12 -69.5t28 -70.5t50 -58.5q2 -2 10 -7t13 -9q-4 7 -6 16.5t-2 19.5q0 24 9 44.5t24 36t36 24.5t45 9t44 -9t36 -24.5t25 -36 t9 -44.5q0 -21 -7 -40t-21 -34q-12 -13 -24.5 -21t-26 -12.5t-27.5 -5.5t-26 -1q-38 0 -70 8t-59 24q-40 22 -67.5 56t-44.5 75.5t-24 87t-7 91.5zM312 106q0 -13 5 -24.5t14 -20t20 -13.5t24 -5q12 0 23.5 5t20.5 13.5t14 20t5 24.5q0 12 -5 24t-14 20t-20 13t-24 5 q-12 0 -23.5 -5t-20.5 -13t-14 -20t-5 -24z" />
<glyph unicode="&#xe5a;" horiz-adv-x="1006" d="M56 578q0 45 12 82.5t33.5 64.5t52 42.5t66.5 15.5q26 0 48 -9.5t37.5 -25.5t24.5 -37t9 -46q0 -24 -8.5 -45.5t-23.5 -37t-36 -25t-45 -9.5q-18 0 -34.5 4.5t-31 13t-25.5 22.5t-17 34q-1 -10 -1 -18v-17q0 -42 19.5 -79t50.5 -64.5t70 -42.5t79 -15q44 0 83 14t71 38 t57 57t41 70v196l68 13v-774h-68v468q-16 -26 -43 -51.5t-63 -46.5t-78 -34t-89 -13q-56 0 -103.5 19t-82.5 53t-54 80.5t-19 102.5zM156 664q0 -13 5 -24.5t14 -20t21 -13.5q10 -5 24 -5q13 0 24.5 5t20.5 13.5t14 20t5 24.5q0 14 -5 25.5t-14 20t-20 13.5t-25 5t-25 -5 t-20 -13.5t-14 -20t-5 -25.5zM786 0v761l68 13v-774h-68z" />
<glyph unicode="&#xe5b;" horiz-adv-x="1787" d="M86 355q0 46 10.5 89.5t31 82.5t51 71.5t69 56t84.5 37t100 13.5q52 0 92.5 -11t71.5 -29.5t53.5 -44.5t36.5 -55t20 -60t6 -61q0 -48 -16 -87t-45 -66t-69 -41t-86 -14q-24 0 -46 7t-40 22t-28 36t-10 48q0 22 8.5 41.5t23.5 34t34.5 23t41.5 8.5t41.5 -8t34.5 -22 t23.5 -33t6.5 -41q0 -3 -1 -9.5t-3 -14t-5 -15t-9 -13.5q20 6 35 19.5t25 32t15 41.5t5 48q0 46 -16 83t-43.5 63.5t-63 40.5t-75.5 14q-62 0 -115.5 -20t-93 -58t-62.5 -93t-23 -125q0 -68 23.5 -123t67 -93t104.5 -59t135 -21q66 0 119 19t94 51.5t71 77t48.5 95t27 106 t7.5 109.5l79 35q22 -25 44.5 -52.5t43 -55t38.5 -53.5t30 -48q28 38 60 84t75 98q36 -45 65.5 -83.5t55.5 -76.5l30 40t46 63l212 -1q26 0 45 5t33 11l17 -60q-15 -6 -27 -9q-11 -4 -23 -6.5t-21 -2.5l-212 -1q-12 -14 -25 -31.5t-26 -35.5l-26 -36t-25 -36q-14 18 -28 39 t-29 42t-31 41.5t-32 38.5q-15 -18 -32.5 -41.5t-35 -49t-35 -52t-31.5 -52.5q-14 24 -32 53t-39 60t-46 64t-53 67q0 -63 -13 -123.5t-38.5 -113.5t-63 -98t-85.5 -77t-107 -50.5t-129 -18.5q-98 0 -172 29t-124 79.5t-75 117.5t-25 144zM424 349q0 -12 4 -22.5t12 -18.5 t18 -12t22 -4t22 4t18 12t13 18.5t5 22.5t-5 22t-13 17.5t-18 12.5t-22 5t-22 -5t-18 -12.5t-12 -17.5t-4 -22z" />
<glyph unicode="&#x2000;" horiz-adv-x="774" />
<glyph unicode="&#x2001;" horiz-adv-x="1548" />
<glyph unicode="&#x2002;" horiz-adv-x="774" />
<glyph unicode="&#x2003;" horiz-adv-x="1548" />
<glyph unicode="&#x2004;" horiz-adv-x="516" />
<glyph unicode="&#x2005;" horiz-adv-x="387" />
<glyph unicode="&#x2006;" horiz-adv-x="258" />
<glyph unicode="&#x2007;" horiz-adv-x="258" />
<glyph unicode="&#x2008;" horiz-adv-x="193" />
<glyph unicode="&#x2009;" horiz-adv-x="309" />
<glyph unicode="&#x200a;" horiz-adv-x="86" />
<glyph unicode="&#x200b;" />
<glyph unicode="&#x2013;" horiz-adv-x="426" d="M8 324v70h411v-70h-411z" />
<glyph unicode="&#x2014;" horiz-adv-x="1481" d="M137 324v70h1207v-70h-1207z" />
<glyph unicode="&#x2018;" horiz-adv-x="387" d="M114 796q0 30 11 58.5t30 54t43 48.5t52 39l24 -36q-20 -12 -37 -27t-30 -33t-21 -37t-8 -37q5 2 7.5 2h8.5q13 0 24.5 -4t20.5 -11.5t14 -18.5q5 -12 5 -26q0 -16 -5.5 -28t-15 -21t-22.5 -14t-27 -5q-32 2 -53 27t-21 69z" />
<glyph unicode="&#x2019;" horiz-adv-x="387" d="M114 737q20 12 37 27t30 32.5t21 36.5t8 37q-5 -2 -7.5 -2h-8.5q-13 0 -24.5 4t-20.5 12t-14 19t-5 25q0 16 5.5 28.5t15 21t22.5 13.5t27 5q32 -2 53 -26q21 -26 21 -70q0 -30 -11 -58t-30 -54t-43 -48q-24 -24 -52 -40z" />
<glyph unicode="&#x201c;" horiz-adv-x="638" d="M114 796q0 30 11 58.5t30 54t43 48.5t52 39l24 -36q-20 -12 -37 -27t-30 -33t-21 -37t-8 -37q5 2 7.5 2h8.5q13 0 24.5 -4t20.5 -11.5t14 -18.5q5 -12 5 -26q0 -16 -5.5 -28t-15 -21t-22.5 -14t-27 -5q-32 2 -53 27t-21 69zM367 796q0 30 10.5 58.5t29.5 54t43.5 48.5 t52.5 39l23 -36q-20 -12 -37 -27t-30 -33t-20 -37t-8 -37q5 2 7 2h8q13 0 25 -4t20.5 -11.5t14.5 -18.5q5 -12 5 -26q0 -16 -5.5 -28t-15.5 -21t-23 -14t-27 -5q-32 2 -52.5 27t-20.5 69z" />
<glyph unicode="&#x201d;" horiz-adv-x="638" d="M112 737q20 12 37 27t30 32.5t20 36.5t8 37q-5 -2 -7 -2h-8q-13 0 -25 4t-20.5 12t-14 19t-5.5 25q0 16 5.5 28.5t15.5 21t23 13.5t27 5q32 -2 52 -26q21 -26 21 -70q0 -30 -10.5 -58t-29.5 -54t-44 -48q-25 -24 -52 -40zM364 737q20 12 37 27t30 32.5t21 36.5t8 37 q-5 -2 -7.5 -2h-8.5q-13 0 -24.5 4t-20.5 12t-14 19t-5 25q0 16 5.5 28.5t15 21t22.5 13.5t27 5q32 -2 53 -26q21 -26 21 -70q0 -30 -11 -58t-30 -54t-43 -48q-24 -24 -52 -40z" />
<glyph unicode="&#x2022;" horiz-adv-x="619" d="M98 368q0 44 16.5 82t45 66.5t67.5 45t82 16.5q44 0 82.5 -16.5t67.5 -45t45 -66.5t16 -82t-16 -83t-45 -67.5t-67.5 -45t-82.5 -16.5t-82.5 16.5t-67 45t-45 67.5t-16.5 83z" />
<glyph unicode="&#x202f;" horiz-adv-x="309" />
<glyph unicode="&#x205f;" horiz-adv-x="387" />
<glyph unicode="&#x20ac;" horiz-adv-x="873" d="M32 391v65h120v16q-1 10 -1 18q0 19 1 37.5t3 36.5h-123v65h134q18 84 55.5 150.5t89 114t113.5 73t129 25.5q30 0 59.5 -4t58.5 -12.5t57 -22t53 -33.5l-45 -54q-24 16 -46 26.5t-44 17t-45.5 8.5t-49.5 2q-59 0 -108 -23.5t-87 -64t-64 -93t-40 -110.5h330v-65h-342 q-2 -18 -3 -36.5t0 -36.5q-1 -19 1 -35h344v-65h-336q12 -78 40.5 -138.5t69.5 -102t92.5 -63t109.5 -21.5q54 0 102 14q48 12 98 44l41 -54q-34 -22 -66.5 -36t-64.5 -22.5t-63 -12t-63 -3.5q-72 0 -136 28t-115 80t-85.5 125t-47.5 162h-126z" />
<glyph unicode="&#xe000;" horiz-adv-x="710" d="M0 0v710h710v-710h-710z" />
<glyph unicode="&#xf700;" horiz-adv-x="738" d="M37 688q35 20 76 37t84 29.5t87 19t85 6.5q42 0 75 -5t60 -15q37 7 68 18q32 10 50 22q24 14 43 31t31 31l48 -50q-13 -14 -33.5 -33t-46.5 -33q-19 -11 -44.5 -19.5t-47.5 -14.5q24 -28 34 -68t10 -92v-334q0 -22 -1 -47.5t-7 -51t-18 -49t-34 -41.5t-55 -29t-81 -11 q-6 0 -15 0.5t-19 1.5l-20 2t-17 2l-41 267q-2 13 -3 22.5t-3 18.5q-6 -6 -15 -10.5t-18 -7.5t-18 -4t-16 -1q-21 0 -40 7.5t-34.5 21t-26 31.5t-12.5 40q-4 26 4 50t25 43t41 31t52 12q24 0 43 -8t33 -21t22 -30t11 -35l55 -368l15 -1.5t8 -0.5q44 2 67.5 14t34.5 35t13 55 t2 74v308q0 26 -2 50t-9 43.5t-20 35.5t-32 27q-22 13 -55.5 18.5t-78.5 5.5q-32 0 -71.5 -8t-78.5 -20t-73 -27q-36 -15 -58 -29zM174 396q0 -14 5 -25t14 -20t20 -14t25 -5t25 5t20 14t14 20t5 25t-5 25t-14 20t-20 14t-25 5t-25 -5t-20 -14t-14 -20t-5 -25z" />
<glyph unicode="&#xf701;" d="M-868 962q76 44 154 66t160 22q36 0 72 -4.5t70 -18t64.5 -38.5t54.5 -65l-70 -14q-15 21 -32 35.5t-40 23.5t-55.5 13.5t-78.5 4.5q-76 0 -143 -21.5t-123 -55.5z" />
<glyph unicode="&#xf702;" d="M-868 962q46 26 88 42.5t79 26t70 13.5t63 4q59 0 112.5 -12t95.5 -44v181l66 15v-264l-65 -14q-13 20 -34.5 34t-49 23.5t-59.5 14t-66 4.5q-32 0 -65.5 -4.5t-68 -14t-68.5 -23.5t-64 -34z" />
<glyph unicode="&#xf703;" d="M-874 958q66 38 128 54t116 16q20 0 43 -3t42.5 -7t34.5 -8q16 -4 23 -8q-6 28 1.5 50t23.5 38t37 24t40 8q22 0 41.5 -8.5t34.5 -23t23 -34.5t8 -42t-7.5 -41t-21 -33.5t-32.5 -22.5t-41 -8t-45 6.5t-47 15.5q-26 10 -45 16.5t-37 10.5t-38 6t-47 4q-24 0 -50 -4 t-51.5 -12t-50.5 -19t-46 -25zM-442 1014q0 -12 4.5 -22t12 -18t18 -12.5t22.5 -4.5t22.5 4.5t18 12.5t12 18t4.5 22t-4.5 22.5t-12 18t-18 12.5t-22.5 5t-22.5 -5t-18 -12.5t-12 -18t-4.5 -22.5z" />
<glyph unicode="&#xf704;" d="M-869 960q44 25 87.5 41.5t82.5 25.5t69.5 13t48.5 4h33q16 0 32 -2v127l64 13v-150q29 -10 50 -21q22 -11 44 -25v183l64 13v-258l-64 -16q-44 40 -97 57.5t-121 16.5q-64 -1 -132 -20q-67 -20 -127 -54z" />
<glyph unicode="&#xf705;" d="M-447 909v257l67 13v-270h-67z" />
<glyph unicode="&#xf706;" d="M-680 1098q0 20 8 36.5t22 29t32 20.5q16 7 36 7q22 0 41 -7.5t31.5 -20.5t19 -32t6.5 -41q0 -14 -4 -31t-12 -34.5t-19 -34t-27 -28.5l8 2q40 4 75 16t65 29t55 38t45 45l44 -38q-11 -14 -32.5 -34.5t-55.5 -42t-80.5 -39.5t-108.5 -27q-33 -4 -62 -6.5t-55 -2.5l-23 42 q27 4 47 13.5t33.5 20t21.5 21.5t12 19q-6 -3 -12.5 -5.5t-15.5 -2.5q-17 -2 -34 4t-30 18t-22 28q-9 18 -9 38zM-625 1096q0 -11 3.5 -19.5t10 -14.5t14.5 -9q9 -3 17 -3q9 0 16.5 4t13.5 10t10 14q4 10 4 20q0 9 -4 16.5t-10 13.5t-14 9.5t-16 3.5t-16.5 -3.5t-15 -9.5 t-10 -14t-3.5 -18z" />
<glyph unicode="&#xf707;" d="M-800 1012q0 22 8.5 42t23.5 35t35 23q21 9 43 9q35 0 62.5 -18.5t38.5 -53.5l57 63q4 5 10.5 8.5t13 4.5t13.5 2t13 1q24 0 45.5 -9.5t33.5 -27.5q6 -10 9.5 -22.5t3.5 -26.5q0 -18 -8 -38q-8 -22 -26 -38q24 4 44 15t35 26t25 33t16 38l50 -20q-10 -29 -28 -55.5 t-45.5 -47.5t-64 -34t-84.5 -14l-30 39q11 8 21.5 17t18.5 20t13 22t5 25q0 17 -8.5 28.5t-25.5 13.5q-7 1 -11.5 -1.5t-6.5 -4.5l-110 -128q-15 -16 -36.5 -25t-43.5 -9q-20 0 -40 6.5t-36 20t-25 33.5t-9 48zM-750 1012q0 -12 5 -23t13 -19t18 -13t22 -5t23 5t19 13t13 19 t5 23t-5 22t-13 18t-19 13t-23 5t-22 -5t-18 -13t-13 -18t-5 -22z" />
<glyph unicode="&#xf708;" d="M-611 1028v60h122v92l65 12v-104h122v-60h-122v-118h-65v118h-122z" />
<glyph unicode="&#xf709;" d="M-516 1005q0 37 22 69q10 14 27 27t37 24.5t42 22t42 19.5t37 15.5t28 10.5l19 -51q-8 -2 -21.5 -6.5t-30 -11.5t-35.5 -16q-19 -8 -38 -20q30 -10 46 -32t16 -50q0 -20 -7.5 -38t-20.5 -31t-30 -21t-37 -8t-37.5 8t-31 21t-20.5 30.5t-7 37.5zM-464 1005q0 -18 13 -31.5 t32 -13.5q18 0 31.5 13t13.5 32q0 18 -13 31.5t-32 13.5q-18 0 -31.5 -13.5t-13.5 -31.5z" />
<glyph unicode="&#xf70a;" d="M-188 909v257l66 13v-270h-66z" />
<glyph unicode="&#xf70b;" d="M-526 1104q0 20 8 37t22 30t32 21t38 8q23 0 41.5 -8t31.5 -21t20 -32t6 -42q0 -14 -4 -31.5t-12 -35.5t-19.5 -34t-27.5 -29l8 1q44 5 84.5 20.5t74 35.5t59.5 43t40 45l45 -30q-4 -7 -14.5 -20.5t-27 -29.5t-40.5 -34t-55.5 -34t-71 -29t-87.5 -20q-33 -4 -62 -6.5 t-57 -2.5l-23 42q28 4 48 14t33.5 21t21.5 21q9 12 13 20q-6 -3 -12.5 -5.5t-16.5 -2.5q-18 -2 -34.5 4t-30 18t-22.5 29t-9 37zM-470 1102q0 -12 4 -20t10 -14t14 -9t17 -3q18 0 31 14q14 12 14 34q0 9 -4 17.5t-10 14.5t-14 9t-17 3q-8 0 -16.5 -3t-14.5 -9t-10 -15 t-4 -19z" />
<glyph unicode="&#xf70c;" d="M-620 1017q0 23 9 43.5t24 36t35.5 24t43.5 8.5q36 0 64 -18.5t40 -54.5l58 64q8 10 23.5 13t27.5 3q24 0 46 -10q23 -10 35 -28q6 -10 10 -22.5t4 -26.5q0 -19 -9 -40t-27 -37q26 4 45.5 15t35 26t26 34t16.5 39l51 -21q-10 -30 -29 -57t-47 -48.5t-65 -34.5t-85 -15 l-32 40q11 8 22 18t19 20.5t13 22t5 25.5q0 18 -8.5 29t-25.5 13q-8 1 -12.5 -1.5t-5.5 -2.5l-113 -132q-16 -16 -37 -25.5t-45 -9.5q-21 0 -41 6.5t-35.5 20.5t-25.5 35t-10 48zM-568 1017q0 -12 5 -23t13 -19.5t18.5 -13.5t22.5 -5t23.5 5t19.5 13.5t13 19.5t5 23t-5 22.5 t-13 19t-19 13t-24 4.5q-12 0 -22.5 -4.5t-18.5 -13t-13 -19t-5 -22.5z" />
<glyph unicode="&#xf70d;" d="M-316 1033v61h128v98l66 12v-110h128v-61h-128v-124h-66v124h-128z" />
<glyph unicode="&#xf70e;" d="M-378 1004q0 38 24 70q10 14 26 27t37 25t43 23t42.5 19.5t38 15t27.5 10.5l19 -50q-8 -2 -21.5 -7t-30 -12t-35.5 -17q-20 -8 -39 -20q30 -10 46.5 -32t16.5 -52q0 -20 -7.5 -37.5t-20.5 -31t-30.5 -21.5t-37.5 -8t-38 8t-31 21t-21 31t-8 38zM-325 1004q0 -9 3.5 -17.5 t10 -14.5t15 -10t16.5 -4q10 0 18 4t14.5 10t10 14.5t3.5 17.5q0 19 -13 32.5t-33 13.5q-9 0 -17 -4t-14.5 -10t-10 -14t-3.5 -18z" />
<glyph unicode="&#xf70f;" horiz-adv-x="1207" d="M79 662q37 26 80 48t90 37.5t95.5 24t96.5 8.5q92 0 150 -30q57 -30 83 -94q5 -12 8.5 -33t5.5 -43.5t2 -43v-32.5v-274q0 -38 8.5 -71t28 -56t52.5 -36.5t82 -13.5q78 0 117.5 46.5t39.5 136.5v524l67 12v-544q0 -22 -2.5 -48t-11 -53t-24.5 -52t-42.5 -44t-66.5 -30.5 t-95 -11.5q-50 0 -91 15.5t-69.5 43.5t-43.5 65t-15 81l-1 314q0 30 -2 57.5t-8.5 51t-19.5 41.5t-35 31t-54 20t-78 7q-29 0 -61.5 -5t-66.5 -14t-68 -21t-65 -26l15 -22q11 -16 18.5 -43t7.5 -67v-266v-11.5v-14.5v-18q14 8 31 12t30 4q23 0 43 -8.5t36 -24t25 -36.5 t9 -47q0 -24 -9.5 -46t-25 -38t-37.5 -25t-46 -9q-33 0 -56.5 10t-38.5 28t-22 42.5t-7 52.5v391q0 29 -3 50.5t-17 39.5zM197 108q0 -14 5 -25t13.5 -20t20.5 -14t25 -5q14 0 25.5 5t20 14t13.5 20t5 25t-5 25.5t-13.5 20t-20.5 13.5t-25 5q-14 0 -25.5 -5t-20 -13.5 t-13.5 -20t-5 -25.5z" />
<glyph unicode="&#xf710;" d="M-554 1042q0 24 9 44t23.5 34t35 22t43.5 8q20 0 37.5 -6.5t31.5 -18t23.5 -27.5t12.5 -36q2 -12 0 -25t-8 -26t-16 -24.5t-24 -18.5q8 -2 20 -2h20q98 0 176 31t144 95l52 -44q-39 -36 -83 -62.5t-91.5 -43.5t-97.5 -25t-100 -8q-22 0 -46 2.5t-47 8.5t-44 15.5 t-36.5 24t-25 35t-9.5 47.5zM-496 1035q2 -10 7 -19t13 -15t18 -9q10 -2 20 -1q11 2 19.5 6.5t14.5 12.5t9 18t1 20t-7 19t-13 15t-18 9t-20 1t-19 -7t-15 -12.5t-9 -17.5t-1 -20z" />
<glyph unicode="&#xf711;" d="M-508 1028q0 24 9.5 46t25.5 38t37.5 25t45.5 9t46 -9t38 -25t25 -38t9 -46t-9 -45t-25 -37t-38 -26q-22 -9 -46 -9t-45.5 9.5t-37.5 25.5t-25.5 37t-9.5 45zM-451 1028q0 -12 4.5 -23t13 -19.5t19.5 -13t24 -4.5q12 0 23.5 4.5t20 13t13 19.5t4.5 23t-4.5 24t-13 20 t-20 13t-23.5 5q-13 0 -24 -5t-19.5 -13t-13 -20t-4.5 -24z" />
<glyph unicode="&#xf712;" d="M-742 1070q0 37 16 69t44.5 55t68 36t87.5 13h143q8 0 14.5 0.5t11.5 1.5t10 4.5t11 9.5l50 51l46 -44l-52 -56q-8 -8 -19 -13t-23 -8.5t-23 -5t-19 -1.5h-140q-31 0 -59.5 -5t-50.5 -16t-36 -31t-16 -48q-1 -14 2.5 -30t10.5 -31t19 -27t27 -18l147 110q24 18 49 28 t48 10t42 -8t33 -22t21 -34t7 -42t-8.5 -42t-23.5 -35t-35.5 -23.5t-42.5 -8.5q-20 0 -37 7t-31 19.5t-24 28.5q-12 17 -16 37l-127 -92q-20 2 -42.5 15.5t-40.5 34.5t-30 50t-12 61zM-438 1018q0 -12 5 -22t13 -17t18 -12t22 -5t23 5t19 12t12 17t4 22q0 11 -4 21t-12 17.5 t-19 12t-23 4.5t-22 -4.5t-18 -12t-13 -17.5t-5 -21z" />
<glyph unicode="&#xf713;" d="M-360 1262v214l66 12v-226h-66z" />
<glyph unicode="&#xf714;" d="M-530 1454q0 20 8 37t21 30t31 20t38 7q22 0 40 -7t31 -21t20 -32t6 -41q0 -14 -4 -31.5t-11.5 -34.5t-19.5 -33t-27 -29l8 1q44 5 83.5 20t72.5 35t58.5 42.5t39.5 44.5l45 -30q-4 -7 -14 -20t-27 -28.5t-40.5 -33.5t-54.5 -34t-70 -28.5t-86 -19.5q-33 -4 -61.5 -6.5 t-56.5 -2.5l-22 42q27 4 46.5 13.5t33.5 20t22 21t12 19.5q-6 -3 -12 -5.5t-16 -2.5q-17 -2 -33.5 4.5t-30.5 17.5t-22 28t-8 37zM-476 1452q0 -11 4 -19t10 -13.5t14 -8.5t16 -3q9 0 17.5 3t14.5 9t9 15t3 19q0 9 -3 17t-9 14t-14 9.5t-18 3.5q-8 0 -16 -3t-14 -9t-10 -15 t-4 -19z" />
<glyph unicode="&#xf715;" d="M-650 1366q0 22 8.5 42.5t23.5 35t35 23.5q21 9 43 9q35 0 62.5 -18.5t38.5 -53.5l57 64q4 5 10.5 7.5t13 4.5t13.5 2h13q24 0 45.5 -9t33.5 -27q6 -10 9.5 -22t3.5 -26q0 -18 -8 -39t-26 -37q24 4 44 15t35 26t25 33t16 38l50 -20q-10 -29 -28 -56t-45.5 -47.5 t-64 -33.5t-84.5 -15l-30 38q11 8 21.5 18t18.5 20t13 22t5 24q0 17 -8.5 28.5t-25.5 13.5q-7 1 -11.5 -1.5t-6.5 -2.5l-110 -129q-15 -16 -36.5 -25.5t-43.5 -9.5q-20 0 -40 7t-36 20.5t-25 34t-9 46.5zM-600 1366q0 -12 5 -22.5t13 -19t18 -13t22 -4.5t23 4.5t19 13t13 19 t5 22.5t-5 22.5t-13 18.5t-19 12.5t-23 4.5t-22 -4.5t-18 -12.5t-13 -18.5t-5 -22.5z" />
<glyph unicode="&#xf716;" d="M-482 1380v60h122v92l66 12v-104h122v-60h-122v-118h-66v118h-122z" />
<glyph unicode="&#xf717;" d="M-470 1204q0 36 22 68q10 14 27 27t37 25t42 23t42 19.5t37 15t28 10.5l19 -50q-8 -2 -21.5 -7t-30 -12t-35.5 -16t-38 -21q30 -10 46 -31t16 -51q0 -20 -7.5 -37t-20.5 -30.5t-30 -21t-37 -7.5t-37.5 7t-31 20.5t-20.5 31t-7 37.5zM-418 1204q0 -18 13 -31.5t32 -13.5 q18 0 31.5 13.5t13.5 31.5t-13 31.5t-32 13.5q-18 0 -31.5 -13.5t-13.5 -31.5z" />
<glyph unicode="&#xf718;" d="M-340 -464q0 22 9 42t23 34.5t34 23t42 8.5q36 0 62 -18t38 -48q2 -6 4 -13t3 -15.5l2 -17t1 -14.5v-194l-64 -13v135q-6 -4 -14 -6.5t-17 -4t-18 -1.5h-15q-20 3 -36.5 11.5t-28 22.5t-18.5 31t-7 37zM-288 -464q0 -12 5 -21.5t12 -17t17 -12t22 -4.5t22 4.5t17 12 t12 17.5q5 9 5 21t-5 22t-12 17.5t-17 12t-22 4.5t-22 -4.5t-17 -12t-12 -17.5t-5 -22z" />
<glyph unicode="&#xf719;" d="M-525 -445q0 21 8 40t22.5 33t34.5 22t44 8q19 0 36.5 -7t31.5 -19t22 -30t8 -42l-2 -96q0 -16 1.5 -30t8.5 -25t20 -18t35 -7q12 0 24.5 4t22.5 11.5t16 18t6 22.5v204l64 14v-201q0 -12 -3 -25.5t-9 -27t-16.5 -26t-26.5 -22.5t-38.5 -16t-52.5 -6q-38 0 -60.5 12 t-34 29.5t-15.5 35.5t-4 30v6v7q1 4 1 9q-2 -1 -6.5 -3t-10.5 -3t-13 -2.5t-14 -1.5q-20 0 -38.5 8t-32 21.5t-21.5 32.5t-8 40zM-474 -445q0 -10 4 -19.5t11 -16.5t17 -11t20 -4t19 4t16 11t11 16t4 20q0 10 -4 19.5t-11 16.5t-16 11t-19 4t-20 -4t-17 -11t-11 -16.5 t-4 -19.5z" />
<glyph unicode="&#xf71a;" d="M-213 -406q0 12 4.5 22t12.5 17t18 12t22 5t22 -5t17.5 -12t12.5 -17q4 -10 4 -22t-4.5 -22t-12 -18t-17.5 -12q-10 -5 -22 -5t-22 4.5t-18 12.5t-12.5 18t-4.5 22z" />
<glyph unicode="&#xf71d;" horiz-adv-x="924" d="M19 663q0 24 9.5 45.5t25.5 37.5t37 25.5t47 9.5q32 0 54 -9.5t36 -25.5t20 -37t6 -42v-428v-37.5t-1 -42.5q0 -23 -1 -49q6 16 15 37.5t19.5 43t19 38.5t12.5 24l147 311l51 20l157 -331q4 -7 12.5 -24t18.5 -38.5t20 -42.5q8 -22 14 -38q-1 26 -1 49q0 20 -0.5 42.5 t-0.5 37.5v289q0 41 -5 74.5t-23 58t-52 37.5q-34 14 -94 16q-10 0 -22 -1.5t-24 -4t-23 -4.5q-11 -4 -21 -6l-19 58q32 10 73 13t81 3q28 0 58 4t61.5 13.5t63.5 27t64 45.5l46 -46q-12 -12 -29 -25t-40.5 -24.5t-53 -21t-65.5 -13.5q32 -13 50 -35.5t27 -47.5t11.5 -50 t2.5 -43v-556h-71l-182 380q-8 17 -18 37.5t-18 39.5t-13 32t-6 14q0 -2 -5.5 -14.5t-13.5 -31.5t-17 -40t-18 -37l-183 -380h-70l-1 518v12q1 8 1 14v18q-14 -8 -28 -12t-25 -4q-24 0 -45.5 9.5t-37 25t-24.5 37t-9 45.5zM74 662q0 -14 5 -25t13.5 -20t20 -14t25.5 -5t25 5 t20 14t14 20t5 25t-5 25t-14 20t-21 14q-10 5 -24 5t-25.5 -5t-20 -14t-13.5 -20t-5 -25z" />
</font>
</defs>
</svg>
